<svg width="193" height="31" viewBox="0 0 193 31" fill="none" xmlns="http://www.w3.org/2000/svg">
<path d="M186.686 14.7534C187.116 11.7448 187.834 8.2288 188.731 5.51022C186.434 8.3013 183.851 11.7811 181.59 15.3334C182.307 15.2609 183.025 15.1884 183.707 15.0796C184.927 14.9346 185.717 14.7897 186.686 14.7534ZM187.726 23.2716C186.937 22.8729 186.255 21.9305 186.219 19.8281C186.219 19.1756 186.219 18.3419 186.327 17.3995L183.815 17.6532C182.379 17.7982 180.979 17.9432 179.975 17.907C179.006 19.6106 178.216 21.423 177.391 22.9092C176.96 23.6704 176.35 23.5254 176.099 23.0179C175.883 22.5829 175.668 22.2567 175.668 21.6767C175.668 21.0968 175.812 20.2631 176.242 19.2119C176.458 18.6682 176.709 18.052 177.104 17.2908C176.458 16.8195 176.135 16.3121 176.027 16.0946C175.74 15.4059 175.883 15.1884 176.816 15.3334C177.319 15.4059 177.606 15.4421 178.108 15.4784C180.8 10.7299 185.753 3.73408 189.521 0.508024C190.31 -0.144436 190.849 -0.108189 191.387 0.616766C191.746 1.08799 191.961 1.48671 192.213 2.10293C192.392 2.5379 192.5 2.93662 192.5 3.3716C192.5 3.80657 192.428 4.31404 192.213 4.85776C191.387 7.4676 190.382 11.2374 189.7 15.0434C190.669 15.4784 191.028 16.1671 191.279 16.9283C191.459 17.5082 191.208 17.6532 190.562 17.5445L189.306 17.327C189.09 19.1394 188.911 20.988 188.839 22.7642C188.839 23.4166 188.372 23.5616 187.726 23.2716Z" fill="white"/>
<path d="M172.581 6.27105C169.459 12.0344 167.126 16.0942 165.152 20.3352C166.911 19.9002 168.633 19.6465 169.925 19.5377C171.899 19.3928 172.94 20.154 173.407 21.2776C173.586 21.7126 173.514 22.0751 172.689 22.0751C171.002 22.0388 167.162 22.945 165.116 23.4888C164.076 23.7425 163.609 23.7425 163.107 23.0175C162.748 22.5101 162.281 21.8576 162.138 21.4589C161.886 20.8064 161.886 20.2264 162.245 19.2478C163.968 14.8255 169.89 3.95119 172.115 0.906379C172.689 0.108927 173.12 0.362663 173.478 1.01512C173.658 1.3776 173.801 1.92132 173.801 2.50128C173.801 3.40748 173.478 4.67615 172.581 6.27105Z" fill="white"/>
<path d="M148.155 21.5677C147.868 21.0964 147.939 20.6252 148.298 19.6103C149.913 15.333 153.359 8.77219 156.337 4.09622C155.512 3.55251 155.081 2.97254 154.902 2.28383C154.794 1.77636 155.189 1.55888 155.727 1.55888C157.701 1.55888 159.603 1.34139 161.326 1.05141C162.546 0.870171 163.551 0.688932 164.484 0.688932C166.135 0.652685 167.032 1.30515 167.499 2.57382C167.642 2.97254 167.391 3.29877 166.709 3.29877C164.915 3.29877 162.977 3.66125 161.29 3.98748C160.752 4.09622 160.393 4.16872 159.854 4.24122C158.67 6.05361 157.019 9.06217 155.332 12.1432C156.086 12.0345 156.696 11.9982 157.199 11.962C159.172 11.8895 160.106 12.542 160.5 13.7019C160.68 14.1731 160.608 14.5356 159.783 14.5356C158.024 14.5356 155.512 14.9706 153.574 15.478C152.569 17.3992 151.815 18.8853 151.098 20.5165C152.569 20.1177 154.83 19.719 155.978 19.6465C157.916 19.574 158.921 20.154 159.352 21.3502C159.531 21.8576 159.424 22.1476 158.67 22.1476C156.768 22.1114 152.928 23.0538 150.954 23.5975C150.093 23.8513 149.518 23.8513 149.052 23.1626C148.801 22.8001 148.549 22.2201 148.155 21.5677Z" fill="white"/>
<path d="M145.781 15.2966C146.032 14.7891 146.858 14.5716 147.217 15.4053C147.396 15.804 147.468 16.239 147.468 16.6015C147.468 18.7039 145.53 20.8062 144.238 21.7849C142.766 22.8361 141.151 23.2711 139.608 23.2711C138.424 23.2711 137.347 23.0173 136.45 22.5099C134.763 21.6037 133.292 19.3201 133.22 16.3478C133.077 9.0257 139.501 2.46485 143.556 0.616211C144.489 0.253733 145.494 0 146.391 0C147.288 0 148.114 0.253734 148.724 0.761203C149.944 1.84864 150.877 3.2623 150.877 4.67597C150.877 5.32842 150.734 6.05338 150.375 6.77834C149.765 8.01076 149.262 9.24319 149.011 10.0406C148.832 10.6568 148.329 11.0193 147.611 10.5844C146.894 10.1131 146.391 9.31568 146.391 8.2645C146.391 7.82952 146.463 7.39455 146.607 6.92333C146.75 6.37961 147.001 5.79965 147.217 5.25593C147.719 3.98726 148.15 2.82733 147.719 2.35611C146.858 1.41366 141.762 4.56722 138.783 9.42442C137.204 11.998 136.522 14.9703 136.522 17.1452C136.522 20.2625 137.886 21.6399 139.178 21.6399C141.151 21.6399 143.7 19.3201 145.781 15.2966Z" fill="white"/>
<path d="M123.372 0.580085C124.413 0.761323 125.74 1.48628 126.422 3.87863C126.674 4.78483 126.925 6.34348 127.176 8.19212C130.047 5.2198 132.918 2.42872 134.713 0.761324C135.466 0.0363689 135.969 0.326352 136.148 1.08755C136.363 2.13874 135.969 3.95113 133.708 6.19849C131.698 8.15587 129.796 9.96826 127.714 12.0706C128.288 16.1304 129.006 20.4801 130.262 22.51C130.729 23.2712 130.226 23.5612 129.545 23.4887C128.001 23.3799 126.458 22.4013 125.561 18.7402C125.238 17.3628 125.059 16.5654 124.807 15.0792C122.295 17.7253 119.747 20.6251 117.917 23.235C117.45 23.8512 116.876 23.7062 116.661 23.09C116.517 22.7275 116.445 22.365 116.445 22.0025C116.445 21.3138 116.768 20.2989 117.486 19.1752C118.491 17.6528 121.183 14.5355 124.233 11.3094C123.731 7.86589 123.192 4.42235 122.475 1.30504C122.331 0.761324 122.762 0.471343 123.372 0.580085Z" fill="white"/>
<path d="M101.797 21.5677C101.51 21.0964 101.582 20.6252 101.941 19.6103C103.556 15.333 107.001 8.77219 109.98 4.09622C109.154 3.55251 108.724 2.97254 108.544 2.28383C108.437 1.77636 108.831 1.55888 109.37 1.55888C111.344 1.55888 113.246 1.34139 114.968 1.05141C116.189 0.870171 117.193 0.688932 118.126 0.688932C119.777 0.652685 120.675 1.30515 121.141 2.57382C121.285 2.97254 121.033 3.29877 120.352 3.29877C118.557 3.29877 116.619 3.66125 114.932 3.98748C114.394 4.09622 114.035 4.16872 113.497 4.24122C112.313 6.05361 110.662 9.06217 108.975 12.1432C109.729 12.0345 110.339 11.9982 110.841 11.962C112.815 11.8895 113.748 12.542 114.143 13.7019C114.322 14.1731 114.251 14.5356 113.425 14.5356C111.667 14.5356 109.154 14.9706 107.216 15.478C106.212 17.3992 105.458 18.8853 104.74 20.5165C106.212 20.1177 108.473 19.719 109.621 19.6465C111.559 19.574 112.564 20.154 112.994 21.3502C113.174 21.8576 113.066 22.1476 112.313 22.1476C110.41 22.1114 106.57 23.0538 104.597 23.5975C103.735 23.8513 103.161 23.8513 102.694 23.1626C102.443 22.8001 102.192 22.2201 101.797 21.5677Z" fill="white"/>
<path d="M79.5424 21.5677C79.2553 21.0964 79.3271 20.6252 79.6859 19.6103C81.3009 15.333 84.7462 8.77219 87.7249 4.09622C86.8995 3.55251 86.4689 2.97254 86.2894 2.28383C86.1817 1.77636 86.5765 1.55888 87.1148 1.55888C89.0887 1.55888 90.9908 1.34139 92.7134 1.05141C93.9336 0.870171 94.9385 0.688932 95.8716 0.688932C97.5225 0.652685 98.4197 1.30515 98.8862 2.57382C99.0298 2.97254 98.7786 3.29877 98.0967 3.29877C96.3023 3.29877 94.3643 3.66125 92.6775 3.98748C92.1392 4.09622 91.7803 4.16872 91.242 4.24122C90.0577 6.05361 88.4068 9.06217 86.7201 12.1432C87.4737 12.0345 88.0838 11.9982 88.5863 11.962C90.5601 11.8895 91.4932 12.542 91.888 13.7019C92.0674 14.1731 91.9957 14.5356 91.1702 14.5356C89.4117 14.5356 86.8995 14.9706 84.9615 15.478C83.9567 17.3992 83.203 18.8853 82.4852 20.5165C83.9567 20.1177 86.2176 19.719 87.3661 19.6465C89.304 19.574 90.3089 20.154 90.7396 21.3502C90.919 21.8576 90.8113 22.1476 90.0577 22.1476C88.1556 22.1114 84.3156 23.0538 82.3417 23.5975C81.4804 23.8513 80.9062 23.8513 80.4396 23.1626C80.1884 22.8001 79.9372 22.2201 79.5424 21.5677Z" fill="white"/>
<path d="M75.9274 23.1985C75.5326 23.8147 75.1379 23.8872 74.7072 23.3072C72.4821 20.3349 70.7595 18.0151 69.3239 16.3839C68.4267 18.1601 67.4936 20.2262 66.417 22.9085C66.1658 23.5972 65.771 23.6697 65.2327 23.126C64.8379 22.691 64.5508 22.1111 64.5508 21.2049C64.5508 20.6974 64.6226 20.0449 64.802 19.3925C65.6992 16.2389 68.8574 9.64183 72.0156 4.67588C70.8313 4.4584 70.3288 3.95093 69.8982 3.18972C69.611 2.68226 69.7905 2.39227 70.5441 2.28353C71.9797 2.06604 73.3434 1.66732 74.6354 1.23234C75.9992 0.797372 77.2553 0.434892 78.5831 0.362397C80.4852 0.289903 82.2438 1.08735 83.141 3.37096C84.11 5.79957 83.3563 7.86569 82.0284 9.71433C80.1981 12.2154 76.5016 14.4265 72.5898 15.4415C73.8818 17.0001 75.102 18.74 75.7839 20.0812C76.1068 20.6974 76.2863 21.3861 76.2863 21.9661C76.2863 22.4011 76.1427 22.836 75.9274 23.1985ZM76.4298 3.98718L75.0302 4.4584C74.9943 5.47334 74.5636 6.74201 73.6664 8.44565C72.6974 10.258 71.8002 11.7805 71.1542 12.9041C78.3319 11.0555 81.849 6.27079 80.9159 3.87843C80.7006 3.29847 80.3058 3.11723 79.7675 3.11723C78.942 3.11723 77.5783 3.58845 76.4298 3.98718Z" fill="white"/>
<path d="M52.6867 23.779C51.8972 23.779 51.2153 23.634 50.6052 23.3803C49.0979 22.764 47.6982 21.4229 47.6982 18.8855C47.6982 18.1968 47.77 17.5081 47.9495 16.7107C48.9184 12.7597 52.9738 5.98132 56.2038 0.979125C56.7062 0.254168 57.2804 0.362912 57.7111 1.01537C57.9982 1.48659 58.1777 1.99406 58.1777 2.64652C58.1777 3.48022 57.8905 4.64015 57.0651 6.19881C55.3425 9.42486 51.8972 14.8258 50.9282 18.5955C50.7846 19.248 50.677 19.828 50.677 20.2992C50.677 21.4954 51.2153 22.0028 52.0049 22.0028C53.8352 22.0028 56.2038 19.1393 58.3212 14.9345C60.2592 11.1285 64.171 4.06019 66.109 0.942875C66.5755 0.181673 67.1498 0.326665 67.5804 0.979125C67.7957 1.37785 67.9393 1.92157 67.9393 2.46528C67.9393 3.26273 67.724 4.35017 67.1498 5.58259C65.9296 8.33742 61.5153 16.6019 59.1466 19.9005C57.2446 22.5466 54.8759 23.779 52.6867 23.779Z" fill="white"/>
<path d="M35.8447 21.0963C35.8447 20.6614 35.9165 20.1176 36.0601 19.6464C36.9573 16.6378 40.582 9.27955 43.7402 4.34985C43.2018 4.42234 42.6994 4.49484 42.197 4.49484C39.8642 4.49484 38.321 3.66114 37.9263 2.24748C37.8186 1.77625 38.1057 1.55877 38.6081 1.55877C41.7304 1.55877 47.4726 0.580078 49.5541 0.580078C51.205 0.580078 52.7123 1.01505 53.2506 2.53746C53.43 2.97243 53.2865 3.40741 52.4611 3.33491C50.9179 3.15367 48.8363 3.4799 46.8984 3.80613C46.9342 5.11105 45.8935 7.21342 44.3503 9.93201C42.4841 13.3393 39.9001 18.1603 37.8186 22.9087C37.5315 23.5612 37.1008 23.5974 36.5984 23.09C36.0601 22.5825 35.8447 22.0025 35.8447 21.0963Z" fill="white"/>
<path d="M29.8791 14.7534C30.3097 11.7448 31.0275 8.2288 31.9247 5.51022C29.6279 8.3013 27.0439 11.7811 24.7829 15.3334C25.5007 15.2609 26.2185 15.1884 26.9003 15.0796C28.1205 14.9346 28.9101 14.7897 29.8791 14.7534ZM30.9198 23.2716C30.1303 22.8729 29.4484 21.9305 29.4125 19.8281C29.4125 19.1756 29.4125 18.3419 29.5202 17.3995L27.008 17.6532C25.5725 17.7982 24.1728 17.9432 23.1679 17.907C22.199 19.6106 21.4094 21.423 20.584 22.9092C20.1533 23.6704 19.5432 23.5254 19.292 23.0179C19.0767 22.5829 18.8613 22.2567 18.8613 21.6767C18.8613 21.0968 19.0049 20.2631 19.4355 19.2119C19.6509 18.6682 19.9021 18.052 20.2969 17.2908C19.6509 16.8195 19.3279 16.3121 19.2202 16.0946C18.9331 15.4059 19.0767 15.1884 20.0098 15.3334C20.5122 15.4059 20.7993 15.4421 21.3017 15.4784C23.9934 10.7299 28.946 3.73408 32.7143 0.508024C33.5038 -0.144436 34.0421 -0.108189 34.5804 0.616766C34.9393 1.08799 35.1547 1.48671 35.4059 2.10293C35.5853 2.5379 35.693 2.93662 35.693 3.3716C35.693 3.80657 35.6212 4.31404 35.4059 4.85776C34.5805 7.4676 33.5756 11.2374 32.8937 15.0434C33.8627 15.4784 34.2216 16.1671 34.4728 16.9283C34.6522 17.5082 34.401 17.6532 33.755 17.5445L32.4989 17.327C32.2836 19.1394 32.1042 20.988 32.0324 22.7642C32.0324 23.4166 31.5658 23.5616 30.9198 23.2716Z" fill="white"/>
<path d="M10.2863 19.9731C10.2145 18.9219 10.1787 18.1969 10.1787 17.327C10.1787 15.2246 10.3222 12.216 10.6452 9.13498C8.09712 13.5572 5.54905 18.5594 3.96996 23.0179C3.71874 23.7428 3.18041 23.7791 2.67797 23.2354C2.31909 22.7641 1.99609 22.0392 1.99609 21.2055C1.99609 20.6618 2.17554 19.7918 2.46264 19.0306C4.32884 14.1734 8.88667 5.54645 11.6142 0.979227C12.0807 0.181775 12.5114 0.181774 13.0497 0.616747C14.1264 1.4142 14.6288 2.1754 14.6288 3.48032C14.6288 3.98779 14.557 4.56776 14.4494 5.22022C13.9469 8.15629 13.6239 11.9261 13.3727 16.0946C15.8131 10.9111 19.2943 4.56776 21.6629 0.834235C22.2013 0.0730303 22.6319 0.254269 23.0267 0.942977C23.242 1.37795 23.3497 1.84917 23.3497 2.35664C23.3497 3.22659 23.1344 4.49526 22.0218 6.30765C20.0121 9.64245 15.5978 18.1607 13.4086 23.0541C13.1933 23.4891 12.7985 23.7066 12.1884 23.3804C11.0041 22.7641 10.4299 21.8217 10.2863 19.9731Z" fill="white"/>
<path d="M1.5 30H191.408" stroke="white" stroke-width="2" stroke-linecap="round"/>
</svg>
