<svg width="351" height="53" viewBox="0 0 351 53" fill="none" xmlns="http://www.w3.org/2000/svg">
<path d="M16.7909 35.5349C16.6629 33.7048 16.5988 32.4428 16.5988 30.9282C16.5988 27.2682 16.855 22.0305 17.4312 16.6666C12.8851 24.3653 8.33897 33.0738 5.52165 40.8357C5.07344 42.0978 4.11299 42.1609 3.21657 41.2143C2.57627 40.394 2 39.1319 2 37.6805C2 36.7339 2.32015 35.2194 2.83239 33.8942C6.16195 25.4381 14.2938 10.4192 19.16 2.46799C19.9924 1.07968 20.7608 1.07968 21.7212 1.83694C23.6421 3.22524 24.5386 4.55045 24.5386 6.82222C24.5386 7.70569 24.4105 8.71536 24.2184 9.85125C23.322 14.9627 22.7457 21.5256 22.2975 28.7827C26.6515 19.7587 32.8624 8.71536 37.0884 2.21557C38.0489 0.890368 38.8172 1.20589 39.5216 2.40488C39.9057 3.16214 40.0978 3.9825 40.0978 4.86597C40.0978 6.38048 39.7137 8.58915 37.7287 11.7444C34.143 17.55 26.2674 32.3797 22.3615 40.8988C21.9774 41.6561 21.273 42.0347 20.1845 41.4667C18.0715 40.394 17.047 38.7532 16.7909 35.5349Z" fill="#171313"/>
<path d="M51.7478 26.4478C52.5162 21.2101 53.7967 15.0889 55.3975 10.3561C51.2996 15.2152 46.6894 21.2732 42.6555 27.4575C43.9361 27.3313 45.2167 27.2051 46.4333 27.0157C48.6103 26.7633 50.019 26.5109 51.7478 26.4478ZM53.6047 41.2774C52.196 40.5833 50.9794 38.9425 50.9154 35.2825C50.9154 34.1466 50.9154 32.6952 51.1075 31.0544L46.6254 31.4962C44.0642 31.7486 41.567 32.001 39.7742 31.9379C38.0454 34.9038 36.6367 38.0591 35.164 40.6464C34.3957 41.9716 33.3072 41.7192 32.8589 40.8357C32.4748 40.0784 32.0906 39.5105 32.0906 38.5008C32.0906 37.4911 32.3467 36.0397 33.1151 34.2097C33.4992 33.2631 33.9475 32.1903 34.6518 30.8651C33.4992 30.0448 32.923 29.1613 32.7309 28.7827C32.2186 27.5837 32.4748 27.2051 34.1395 27.4575C35.036 27.5837 35.5482 27.6468 36.4446 27.7099C41.2469 19.4432 50.083 7.26395 56.8062 1.64763C58.2148 0.511741 59.1753 0.574845 60.1357 1.83694C60.776 2.6573 61.1602 3.35146 61.6084 4.42423C61.9286 5.18149 62.1206 5.87564 62.1206 6.6329C62.1206 7.39016 61.9926 8.27363 61.6084 9.2202C60.1357 13.7637 58.3429 20.3266 57.1263 26.9526C58.8551 27.7099 59.4954 28.9089 59.9436 30.2341C60.2638 31.2438 59.8156 31.4962 58.663 31.3069L56.422 30.9282C56.0378 34.0835 55.7176 37.3018 55.5896 40.394C55.5896 41.5298 54.7572 41.7823 53.6047 41.2774Z" fill="#171313"/>
<path d="M62.3913 37.4911C62.3913 36.7339 62.5193 35.7873 62.7755 34.9669C64.3762 29.7292 70.8432 16.919 76.4779 8.33673C75.5174 8.46294 74.621 8.58915 73.7246 8.58915C69.5626 8.58915 66.8093 7.13774 66.105 4.67665C65.9129 3.85629 66.4252 3.47766 67.3216 3.47766C72.8922 3.47766 83.137 1.77383 86.8507 1.77383C89.7961 1.77383 92.4854 2.53109 93.4458 5.18149C93.766 5.93875 93.5098 6.69601 92.0371 6.5698C89.2839 6.25428 85.5701 6.82222 82.1125 7.39016C82.1765 9.66193 80.3197 13.322 77.5664 18.0549C74.2368 23.9867 69.6267 32.3797 65.9129 40.6464C65.4007 41.7823 64.6323 41.8454 63.7359 40.9619C62.7755 40.0784 62.3913 39.0688 62.3913 37.4911Z" fill="#171313"/>
<path d="M94.2172 42.1609C92.8085 42.1609 91.5919 41.9085 90.5034 41.4667C87.8142 40.394 85.317 38.0591 85.317 33.6417C85.317 32.4428 85.4451 31.2438 85.7652 29.8555C87.494 22.977 94.7294 11.1764 100.492 2.46799C101.389 1.20589 102.413 1.39521 103.181 2.53109C103.694 3.35146 104.014 4.23492 104.014 5.37081C104.014 6.82222 103.502 8.84157 102.029 11.5551C98.9554 17.1714 92.8085 26.574 91.0797 33.1369C90.8236 34.2728 90.6315 35.2825 90.6315 36.1028C90.6315 38.1853 91.5919 39.0688 93.0006 39.0688C96.2661 39.0688 100.492 34.0835 104.27 26.7633C107.727 20.1373 114.707 7.83189 118.164 2.40488C118.997 1.07968 120.021 1.3321 120.79 2.46799C121.174 3.16214 121.43 4.10871 121.43 5.05529C121.43 6.44359 121.046 8.33673 120.021 10.4823C117.844 15.2783 109.969 29.6661 105.743 35.4087C102.349 40.0153 98.123 42.1609 94.2172 42.1609Z" fill="#171313"/>
<path d="M135.684 41.1512C134.98 42.224 134.275 42.3502 133.507 41.3405C129.537 36.1659 126.464 32.1272 123.903 29.2875C122.302 32.3797 120.637 35.9766 118.716 40.6464C118.268 41.8454 117.564 41.9716 116.603 41.025C115.899 40.2677 115.387 39.2581 115.387 37.6805C115.387 36.797 115.515 35.6611 115.835 34.5252C117.436 29.0351 123.07 17.55 128.705 8.90468C126.592 8.52604 125.695 7.64258 124.927 6.31738C124.415 5.43391 124.735 4.92907 126.08 4.73976C128.641 4.36113 131.074 3.66698 133.379 2.90972C135.812 2.15247 138.053 1.52142 140.422 1.39521C143.816 1.269 146.953 2.6573 148.554 6.6329C150.283 10.8609 148.938 14.4579 146.569 17.6762C143.304 22.0305 136.709 25.8799 129.729 27.6468C132.034 30.3603 134.211 33.3893 135.428 35.7242C136.004 36.797 136.324 37.996 136.324 39.0056C136.324 39.7629 136.068 40.5202 135.684 41.1512ZM136.581 7.70569L134.083 8.52604C134.019 10.293 133.251 12.5016 131.65 15.4676C129.921 18.6228 128.321 21.2732 127.168 23.2295C139.974 20.0111 146.249 11.6813 144.584 7.51637C144.2 6.50669 143.496 6.19117 142.535 6.19117C141.063 6.19117 138.629 7.01153 136.581 7.70569Z" fill="#171313"/>
<path d="M143.91 38.3115C143.398 37.4911 143.526 36.6708 144.167 34.9038C147.048 27.4575 153.195 16.0355 158.509 7.895C157.037 6.94843 156.268 5.93875 155.948 4.73976C155.756 3.85629 156.46 3.47766 157.421 3.47766C160.942 3.47766 164.336 3.09904 167.409 2.5942C169.586 2.27867 171.379 1.96315 173.044 1.96315C175.989 1.90005 177.59 3.03593 178.423 5.2446C178.679 5.93875 178.231 6.50669 177.014 6.50669C173.812 6.50669 170.355 7.13774 167.345 7.70569C166.385 7.895 165.745 8.02121 164.784 8.14742C162.671 11.3027 159.726 16.5404 156.716 21.9043C158.061 21.7149 159.15 21.6518 160.046 21.5887C163.568 21.4625 165.232 22.5984 165.937 24.6178C166.257 25.4381 166.129 26.0692 164.656 26.0692C161.519 26.0692 157.037 26.8264 153.579 27.7099C151.786 31.0544 150.442 33.6417 149.161 36.4815C151.786 35.7873 155.82 35.0932 157.869 34.9669C161.327 34.8407 163.119 35.8504 163.888 37.9329C164.208 38.8163 164.016 39.3212 162.671 39.3212C159.278 39.2581 152.426 40.8988 148.905 41.8454C147.368 42.2871 146.344 42.2871 145.511 41.0881C145.063 40.4571 144.615 39.4474 143.91 38.3115Z" fill="#171313"/>
<path d="M185.395 38.3115C184.883 37.4911 185.011 36.6708 185.651 34.9038C188.532 27.4575 194.679 16.0355 199.994 7.895C198.521 6.94843 197.753 5.93875 197.432 4.73976C197.24 3.85629 197.945 3.47766 198.905 3.47766C202.427 3.47766 205.82 3.09904 208.894 2.5942C211.071 2.27867 212.864 1.96315 214.528 1.96315C217.474 1.90005 219.075 3.03593 219.907 5.2446C220.163 5.93875 219.715 6.50669 218.498 6.50669C215.297 6.50669 211.839 7.13774 208.83 7.70569C207.869 7.895 207.229 8.02121 206.269 8.14742C204.156 11.3027 201.21 16.5404 198.201 21.9043C199.545 21.7149 200.634 21.6518 201.53 21.5887C205.052 21.4625 206.717 22.5984 207.421 24.6178C207.741 25.4381 207.613 26.0692 206.141 26.0692C203.003 26.0692 198.521 26.8264 195.063 27.7099C193.271 31.0544 191.926 33.6417 190.645 36.4815C193.271 35.7873 197.304 35.0932 199.353 34.9669C202.811 34.8407 204.604 35.8504 205.372 37.9329C205.692 38.8163 205.5 39.3212 204.156 39.3212C200.762 39.2581 193.911 40.8988 190.389 41.8454C188.852 42.2871 187.828 42.2871 186.996 41.0881C186.547 40.4571 186.099 39.4474 185.395 38.3115Z" fill="#171313"/>
<path d="M223.887 1.77383C225.744 2.08936 228.113 3.35146 229.33 7.51637C229.778 9.09399 230.226 11.8075 230.675 15.0258C235.797 9.85125 240.919 4.99218 244.121 2.08936C245.465 0.827264 246.362 1.3321 246.682 2.6573C247.066 4.48734 246.362 7.64258 242.328 11.5551C238.742 14.9627 235.349 18.118 231.635 21.778C232.659 28.8458 233.94 36.4184 236.181 39.9522C237.014 41.2774 236.117 41.7823 234.901 41.656C232.147 41.4667 229.394 39.7629 227.793 33.3893C227.217 30.9913 226.897 29.603 226.449 27.0157C221.966 31.6224 217.42 36.6708 214.155 41.2143C213.322 42.2871 212.298 42.0347 211.914 40.9619C211.658 40.3309 211.53 39.6998 211.53 39.0688C211.53 37.8698 212.106 36.1028 213.386 34.1466C215.179 31.4962 219.982 26.0692 225.424 20.4528C224.528 14.4579 223.567 8.46294 222.287 3.03593C222.031 2.08936 222.799 1.58452 223.887 1.77383Z" fill="#171313"/>
<path d="M263.869 27.3944C264.317 26.5109 265.789 26.1323 266.43 27.5837C266.75 28.2778 266.878 29.0351 266.878 29.6661C266.878 33.3262 263.42 36.9863 261.115 38.6901C258.49 40.5202 255.609 41.2774 252.855 41.2774C250.742 41.2774 248.822 40.8357 247.221 39.9522C244.211 38.3746 241.586 34.399 241.458 29.2244C241.202 16.4772 252.663 5.05529 259.899 1.83694C261.564 1.20589 263.356 0.76416 264.957 0.76416C266.558 0.76416 268.031 1.20589 269.119 2.08936C271.296 3.9825 272.961 6.44359 272.961 8.90468C272.961 10.0406 272.705 11.3027 272.064 12.5648C270.976 14.7103 270.08 16.8559 269.631 18.2442C269.311 19.317 268.415 19.948 267.134 19.1908C265.854 18.3704 264.957 16.9821 264.957 15.152C264.957 14.3948 265.085 13.6375 265.341 12.8172C265.597 11.8706 266.046 10.8609 266.43 9.91435C267.326 7.70569 268.095 5.68633 267.326 4.86597C265.79 3.22524 256.697 8.71536 251.383 17.1714C248.565 21.6518 247.349 26.8264 247.349 30.6127C247.349 36.0397 249.782 38.4377 252.087 38.4377C255.609 38.4377 260.155 34.399 263.869 27.3944Z" fill="#171313"/>
<path d="M269.882 38.3115C269.37 37.4911 269.498 36.6708 270.138 34.9038C273.019 27.4575 279.166 16.0355 284.481 7.895C283.008 6.94843 282.24 5.93875 281.92 4.73976C281.727 3.85629 282.432 3.47766 283.392 3.47766C286.914 3.47766 290.307 3.09904 293.381 2.5942C295.558 2.27867 297.351 1.96315 299.016 1.96315C301.961 1.90005 303.562 3.03593 304.394 5.2446C304.65 5.93875 304.202 6.50669 302.985 6.50669C299.784 6.50669 296.326 7.13774 293.317 7.70569C292.356 7.895 291.716 8.02121 290.756 8.14742C288.643 11.3027 285.697 16.5404 282.688 21.9043C284.033 21.7149 285.121 21.6518 286.017 21.5887C289.539 21.4625 291.204 22.5984 291.908 24.6178C292.228 25.4381 292.1 26.0692 290.628 26.0692C287.49 26.0692 283.008 26.8264 279.55 27.7099C277.758 31.0544 276.413 33.6417 275.132 36.4815C277.758 35.7873 281.792 35.0932 283.84 34.9669C287.298 34.8407 289.091 35.8504 289.859 37.9329C290.179 38.8163 289.987 39.3212 288.643 39.3212C285.249 39.2581 278.398 40.8988 274.876 41.8454C273.34 42.2871 272.315 42.2871 271.483 41.0881C271.034 40.4571 270.586 39.4474 269.882 38.3115Z" fill="#171313"/>
<path d="M313.463 11.6813C307.892 21.7149 303.73 28.7827 300.209 36.1659C303.346 35.4087 306.42 34.9669 308.725 34.7776C312.246 34.5252 314.103 35.8504 314.936 37.8067C315.256 38.5639 315.128 39.195 313.655 39.195C310.645 39.1319 303.794 40.7095 300.145 41.656C298.288 42.0978 297.455 42.0978 296.559 40.8357C295.919 39.9522 295.086 38.8163 294.83 38.1222C294.382 36.9863 294.382 35.9766 295.022 34.2728C298.096 26.574 308.661 7.64258 312.63 2.34178C313.655 0.953472 314.423 1.39521 315.064 2.53109C315.384 3.16214 315.64 4.10871 315.64 5.11839C315.64 6.69601 315.064 8.90468 313.463 11.6813Z" fill="#171313"/>
<path d="M338.627 26.4478C339.395 21.2101 340.676 15.0889 342.277 10.3561C338.179 15.2152 333.569 21.2732 329.535 27.4575C330.815 27.3313 332.096 27.2051 333.313 27.0157C335.49 26.7633 336.898 26.5109 338.627 26.4478ZM340.484 41.2774C339.075 40.5833 337.859 38.9425 337.795 35.2825C337.795 34.1466 337.795 32.6952 337.987 31.0544L333.505 31.4962C330.944 31.7486 328.446 32.001 326.654 31.9379C324.925 34.9038 323.516 38.0591 322.043 40.6464C321.275 41.9716 320.186 41.7192 319.738 40.8357C319.354 40.0784 318.97 39.5105 318.97 38.5008C318.97 37.4911 319.226 36.0397 319.994 34.2097C320.379 33.2631 320.827 32.1903 321.531 30.8651C320.379 30.0448 319.802 29.1613 319.61 28.7827C319.098 27.5837 319.354 27.2051 321.019 27.4575C321.915 27.5837 322.428 27.6468 323.324 27.7099C328.126 19.4432 336.962 7.26395 343.686 1.64763C345.094 0.511741 346.055 0.574845 347.015 1.83694C347.655 2.6573 348.04 3.35146 348.488 4.42423C348.808 5.18149 349 5.87564 349 6.6329C349 7.39016 348.872 8.27363 348.488 9.2202C347.015 13.7637 345.222 20.3266 344.006 26.9526C345.734 27.7099 346.375 28.9089 346.823 30.2341C347.143 31.2438 346.695 31.4962 345.542 31.3069L343.301 30.9282C342.917 34.0835 342.597 37.3018 342.469 40.394C342.469 41.5298 341.637 41.7823 340.484 41.2774Z" fill="#171313"/>
<path d="M2 50.7642L349 50.7642" stroke="#171313" stroke-width="3" stroke-linecap="round"/>
</svg>
