<svg width="278" height="148" viewBox="0 0 278 148" fill="none" xmlns="http://www.w3.org/2000/svg">
<path d="M25.1508 55.6481C24.951 52.7561 24.8511 50.7617 24.8511 48.3683C24.8511 42.5844 25.2507 34.3073 26.1498 25.8308C19.0571 37.9971 11.9644 51.7589 7.5689 64.0249C6.86962 66.0193 5.37116 66.1191 3.9726 64.6232C2.97363 63.3268 2.07456 61.3323 2.07456 59.0387C2.07456 57.5428 2.57404 55.1495 3.37322 53.0553C8.56787 39.6924 21.2548 15.9582 28.847 3.3931C30.1456 1.19919 31.3444 1.19919 32.8429 2.39586C35.8398 4.58978 37.2383 6.68397 37.2383 10.274C37.2383 11.6701 37.0385 13.2657 36.7389 15.0607C35.3403 23.1383 34.4412 33.5095 33.7419 44.9777C40.5349 30.7173 50.225 13.2657 56.8182 2.99421C58.3166 0.900016 59.5154 1.39863 60.6143 3.29337C61.2136 4.49006 61.5133 5.78646 61.5133 7.18259C61.5133 9.57594 60.9139 13.0663 57.8171 18.0524C52.2229 27.227 39.9356 50.6619 33.8418 64.1246C33.2425 65.3213 32.1436 65.9196 30.4453 65.0221C27.1487 63.3268 25.5504 60.734 25.1508 55.6481Z" fill="#171313"/>
<path d="M79.6891 41.288C80.8879 33.0109 82.8858 23.3378 85.3833 15.8585C78.9899 23.5372 71.7973 33.1106 65.5038 42.8835C67.5017 42.6841 69.4996 42.4846 71.3977 42.1855C74.7942 41.7866 76.9919 41.3877 79.6891 41.288ZM82.5862 64.7229C80.3884 63.626 78.4904 61.0332 78.3905 55.2492C78.3905 53.4542 78.3905 51.1606 78.6902 48.5677L71.6974 49.2658C67.7015 49.6647 63.8055 50.0636 61.0084 49.9639C58.3112 54.6509 56.1134 59.637 53.8158 63.7257C52.617 65.8199 50.9188 65.421 50.2195 64.0249C49.6201 62.8282 49.0207 61.9307 49.0207 60.3351C49.0207 58.7395 49.4203 56.4459 50.6191 53.5539C51.2185 52.0581 51.9177 50.3628 53.0166 48.2686C51.2185 46.9722 50.3194 45.5761 50.0197 44.9777C49.2205 43.083 49.6201 42.4846 52.2174 42.8835C53.616 43.083 54.4152 43.1827 55.8137 43.2824C63.306 30.2187 77.0918 10.9721 87.581 2.0967C89.7787 0.301679 91.2772 0.401401 92.7757 2.39586C93.7746 3.69227 94.374 4.78923 95.0733 6.48452C95.5728 7.6812 95.8725 8.77816 95.8725 9.97484C95.8725 11.1715 95.6727 12.5676 95.0733 14.0635C92.7757 21.2436 89.9785 31.6148 88.0805 42.0857C90.7777 43.2824 91.7767 45.1772 92.476 47.2713C92.9755 48.8669 92.2762 49.2658 90.478 48.9666L86.9816 48.3683C86.3822 53.3545 85.8828 58.4404 85.683 63.3268C85.683 65.1218 84.3843 65.5207 82.5862 64.7229Z" fill="#171313"/>
<path d="M96.2947 58.7395C96.2947 57.5428 96.4945 56.047 96.8941 54.7506C99.3915 46.4736 109.481 26.2297 118.272 12.6674C116.774 12.8668 115.375 13.0663 113.976 13.0663C107.483 13.0663 103.188 10.7726 102.089 6.88341C101.789 5.58701 102.588 4.98867 103.987 4.98867C112.678 4.98867 128.661 2.29614 134.455 2.29614C139.051 2.29614 143.246 3.49282 144.745 7.6812C145.244 8.87788 144.845 10.0746 142.547 9.87512C138.251 9.3765 132.457 10.274 127.063 11.1715C127.163 14.7616 124.266 20.5455 119.97 28.0248C114.776 37.3987 107.583 50.6619 101.789 63.7257C100.99 65.5207 99.7911 65.6204 98.3925 64.2243C96.8941 62.8282 96.2947 61.2326 96.2947 58.7395Z" fill="#171313"/>
<path d="M145.948 66.119C143.75 66.119 141.852 65.7202 140.154 65.0221C135.959 63.3268 132.063 59.637 132.063 52.6564C132.063 50.7617 132.262 48.8669 132.762 46.673C135.459 35.8032 146.747 17.1549 155.738 3.3931C157.137 1.39863 158.735 1.6978 159.934 3.49282C160.733 4.78923 161.232 6.18535 161.232 7.98037C161.232 10.274 160.433 13.4652 158.136 17.7533C153.341 26.6286 143.75 41.4874 141.053 51.8586C140.654 53.6536 140.354 55.2492 140.354 56.5456C140.354 59.8365 141.852 61.2326 144.05 61.2326C149.145 61.2326 155.738 53.3545 161.632 41.7866C167.027 31.3156 177.915 11.8696 183.31 3.29337C184.608 1.19919 186.207 1.59808 187.406 3.3931C188.005 4.49006 188.404 5.9859 188.404 7.48176C188.404 9.67567 187.805 12.6674 186.207 16.058C182.81 23.6369 170.523 46.3738 163.93 55.4487C158.635 62.7285 152.042 66.119 145.948 66.119Z" fill="#171313"/>
<path d="M210.643 64.5235C209.544 66.2188 208.446 66.4182 207.247 64.8226C201.053 56.6453 196.258 50.263 192.262 45.7755C189.765 50.6619 187.167 56.3462 184.171 63.7257C183.471 65.6204 182.372 65.8199 180.874 64.324C179.775 63.1274 178.976 61.5318 178.976 59.0387C178.976 57.6426 179.176 55.8475 179.675 54.0525C182.173 45.3766 190.964 27.227 199.755 13.5649C196.458 12.9665 195.059 11.5704 193.861 9.47622C193.061 8.0801 193.561 7.28231 195.659 6.98314C199.655 6.3848 203.451 5.28784 207.047 4.09116C210.843 2.89449 214.339 1.89725 218.036 1.69781C223.33 1.49836 228.225 3.69227 230.723 9.97484C233.42 16.6563 231.322 22.3405 227.626 27.4264C222.531 34.3073 212.242 40.3904 201.353 43.1827C204.949 47.4708 208.346 52.2575 210.244 55.9473C211.143 57.6426 211.642 59.5373 211.642 61.1329C211.642 62.3296 211.243 63.5262 210.643 64.5235ZM212.042 11.6701L208.146 12.9665C208.046 15.7588 206.847 19.2491 204.35 23.9361C201.653 28.9223 199.155 33.1106 197.357 36.2021C217.336 31.1162 227.126 17.9527 224.529 11.371C223.93 9.77539 222.831 9.27677 221.332 9.27677C219.035 9.27677 215.239 10.5732 212.042 11.6701Z" fill="#171313"/>
<path d="M223.478 60.0359C222.679 58.7395 222.878 57.4431 223.877 54.6509C228.373 42.8835 237.963 24.8336 246.254 11.9693C243.957 10.4735 242.758 8.87788 242.258 6.98314C241.959 5.58701 243.058 4.98867 244.556 4.98867C250.05 4.98867 255.345 4.39033 260.14 3.59255C263.536 3.09393 266.334 2.59531 268.931 2.59531C273.526 2.49559 276.024 4.29061 277.322 7.78092C277.722 8.87788 277.023 9.77539 275.125 9.77539C270.13 9.77539 264.735 10.7726 260.04 11.6701C258.542 11.9693 257.543 12.1688 256.044 12.3682C252.748 17.3544 248.152 25.6314 243.457 34.1079C245.555 33.8087 247.253 33.709 248.652 33.6093C254.146 33.4098 256.743 35.2048 257.842 38.396C258.342 39.6924 258.142 40.6896 255.844 40.6896C250.949 40.6896 243.957 41.8863 238.562 43.2824C235.765 48.5678 233.667 52.6564 231.669 57.144C235.765 56.047 242.059 54.95 245.255 54.7506C250.65 54.5512 253.447 56.1467 254.646 59.4376C255.145 60.8337 254.845 61.6315 252.748 61.6315C247.453 61.5318 236.764 64.1246 231.27 65.6204C228.872 66.3185 227.274 66.3185 225.975 64.4238C225.276 63.4265 224.577 61.8309 223.478 60.0359Z" fill="#171313"/>
<path d="M0.923792 141.809C0.124615 140.513 0.324409 139.216 1.32338 136.424C5.81875 124.657 15.4089 106.607 23.7003 93.7424C21.4027 92.2465 20.2039 90.651 19.7044 88.7562C19.4048 87.3601 20.5036 86.7618 22.0021 86.7618C27.4964 86.7618 32.791 86.1634 37.586 85.3656C40.9825 84.867 43.7796 84.3684 46.377 84.3684C50.9722 84.2687 53.4697 86.0637 54.7683 89.554C55.1679 90.651 54.4686 91.5485 52.5706 91.5485C47.5757 91.5485 42.1813 92.5457 37.4861 93.4432C35.9877 93.7424 34.9887 93.9418 33.4902 94.1413C30.1936 99.1274 25.5984 107.404 20.9032 115.881C23.0011 115.582 24.6993 115.482 26.0979 115.382C31.5922 115.183 34.1895 116.978 35.2884 120.169C35.7879 121.465 35.5881 122.463 33.2904 122.463C28.3955 122.463 21.4027 123.659 16.0083 125.056C13.2111 130.341 11.1133 134.43 9.11535 138.917C13.2111 137.82 19.5047 136.723 22.7014 136.524C28.0958 136.324 30.8929 137.92 32.0917 141.211C32.5912 142.607 32.2915 143.405 30.1936 143.405C24.8991 143.305 14.2101 145.898 8.71577 147.394C6.31824 148.092 4.71988 148.092 3.42122 146.197C2.72194 145.2 2.02266 143.604 0.923792 141.809Z" fill="#171313"/>
<path d="M60.9783 84.0692C63.8753 84.5678 67.5715 86.5623 69.4696 93.1441C70.1689 95.6371 70.8681 99.9252 71.5674 105.011C79.5592 96.8338 87.551 89.1551 92.5458 84.5678C94.6437 82.5734 96.0422 83.3712 96.5417 85.4654C97.1411 88.3573 96.0422 93.3435 89.7487 99.5263C84.1545 104.911 78.8599 109.898 73.0659 115.682C74.6642 126.851 76.6622 138.817 80.1586 144.402C81.4572 146.496 80.0587 147.294 78.1606 147.094C73.8651 146.795 69.5695 144.103 67.0721 134.031C66.173 130.241 65.6735 128.047 64.9742 123.959C57.9814 131.238 50.8887 139.216 45.794 146.396C44.4953 148.092 42.897 147.693 42.2976 145.997C41.898 145 41.6982 144.003 41.6982 143.006C41.6982 141.111 42.5973 138.319 44.5952 135.227C47.3923 131.039 54.8846 122.463 63.3759 113.587C61.9773 104.114 60.4788 94.6399 58.4809 86.0637C58.0813 84.5679 59.2801 83.7701 60.9783 84.0692Z" fill="#171313"/>
<path d="M123.355 124.557C124.055 123.161 126.352 122.562 127.351 124.856C127.851 125.953 128.051 127.15 128.051 128.147C128.051 133.931 122.656 139.715 119.06 142.407C114.964 145.299 110.469 146.496 106.173 146.496C102.877 146.496 99.8797 145.798 97.3822 144.402C92.6871 141.909 88.5913 135.626 88.3915 127.449C87.9919 107.305 105.873 89.2548 117.162 84.169C119.759 83.1717 122.556 82.4737 125.054 82.4737C127.551 82.4737 129.849 83.1717 131.547 84.5678C134.944 87.5596 137.541 91.4488 137.541 95.338C137.541 97.133 137.141 99.1275 136.142 101.122C134.444 104.513 133.046 107.903 132.346 110.097C131.847 111.792 130.448 112.79 128.45 111.593C126.452 110.296 125.054 108.103 125.054 105.211C125.054 104.014 125.254 102.817 125.653 101.521C126.053 100.025 126.752 98.4294 127.351 96.9335C128.75 93.4432 129.949 90.2521 128.75 88.9557C126.352 86.3629 112.167 95.0388 103.876 108.402C99.4801 115.482 97.582 123.659 97.582 129.643C97.582 138.219 101.378 142.008 104.974 142.008C110.469 142.008 117.561 135.626 123.355 124.557Z" fill="#171313"/>
<path d="M132.737 141.809C131.938 140.513 132.138 139.216 133.137 136.424C137.632 124.657 147.222 106.607 155.514 93.7424C153.216 92.2465 152.017 90.651 151.518 88.7562C151.218 87.3601 152.317 86.7618 153.816 86.7618C159.31 86.7618 164.604 86.1634 169.399 85.3656C172.796 84.867 175.593 84.3684 178.19 84.3684C182.786 84.2687 185.283 86.0637 186.582 89.554C186.981 90.651 186.282 91.5485 184.384 91.5485C179.389 91.5485 173.995 92.5457 169.3 93.4432C167.801 93.7424 166.802 93.9418 165.304 94.1413C162.007 99.1274 157.412 107.404 152.717 115.881C154.814 115.582 156.513 115.482 157.911 115.382C163.406 115.183 166.003 116.978 167.102 120.169C167.601 121.465 167.402 122.463 165.104 122.463C160.209 122.463 153.216 123.659 147.822 125.056C145.025 130.341 142.927 134.43 140.929 138.917C145.025 137.82 151.318 136.723 154.515 136.524C159.909 136.324 162.706 137.92 163.905 141.211C164.405 142.607 164.105 143.405 162.007 143.405C156.713 143.305 146.024 145.898 140.529 147.394C138.132 148.092 136.533 148.092 135.235 146.197C134.535 145.2 133.836 143.604 132.737 141.809Z" fill="#171313"/>
<path d="M200.73 99.7258C192.039 115.582 185.546 126.751 180.052 138.418C184.947 137.222 189.742 136.524 193.338 136.225C198.832 135.826 201.729 137.92 203.028 141.011C203.528 142.208 203.328 143.205 201.03 143.205C196.335 143.105 185.646 145.599 179.952 147.094C177.055 147.792 175.756 147.792 174.358 145.798C173.359 144.402 172.06 142.607 171.66 141.51C170.961 139.715 170.961 138.119 171.96 135.427C176.755 123.261 193.238 93.3435 199.432 84.9667C201.03 82.7728 202.229 83.4709 203.228 85.2659C203.727 86.2631 204.127 87.759 204.127 89.3546C204.127 91.8477 203.228 95.338 200.73 99.7258Z" fill="#171313"/>
<path d="M239.991 123.061C241.19 114.784 243.188 105.111 245.685 97.6316C239.292 105.31 232.099 114.884 225.805 124.657C227.803 124.457 229.801 124.258 231.699 123.959C235.096 123.56 237.294 123.161 239.991 123.061ZM242.888 146.496C240.69 145.399 238.792 142.806 238.692 137.022C238.692 135.227 238.692 132.934 238.992 130.341L231.999 131.039C228.003 131.438 224.107 131.837 221.31 131.737C218.613 136.424 216.415 141.41 214.117 145.499C212.919 147.593 211.22 147.194 210.521 145.798C209.922 144.601 209.322 143.704 209.322 142.108C209.322 140.513 209.722 138.219 210.921 135.327C211.52 133.831 212.219 132.136 213.318 130.042C211.52 128.745 210.621 127.349 210.321 126.751C209.522 124.856 209.922 124.258 212.519 124.657C213.918 124.856 214.717 124.956 216.115 125.056C223.608 111.992 237.393 92.7452 247.883 83.8698C250.08 82.0748 251.579 82.1745 253.077 84.169C254.076 85.4654 254.676 86.5623 255.375 88.2576C255.874 89.4543 256.174 90.5512 256.174 91.7479C256.174 92.9446 255.974 94.3407 255.375 95.8366C253.077 103.017 250.28 113.388 248.382 123.859C251.079 125.056 252.078 126.95 252.778 129.044C253.277 130.64 252.578 131.039 250.78 130.74L247.283 130.141C246.684 135.128 246.184 140.213 245.985 145.1C245.985 146.895 244.686 147.294 242.888 146.496Z" fill="#171313"/>
</svg>
