<svg width="270" height="34" viewBox="0 0 270 34" fill="none" xmlns="http://www.w3.org/2000/svg">
<path d="M11.5088 28.0681C11.4091 26.6092 11.3593 25.6031 11.3593 24.3958C11.3593 21.4781 11.5586 17.3028 12.007 13.0269C8.46967 19.1641 4.93234 26.1062 2.74019 32.2937C2.39144 33.2998 1.64411 33.3501 0.946611 32.5955C0.448394 31.9416 0 30.9355 0 29.7784C0 29.0239 0.249108 27.8166 0.647681 26.7602C3.2384 20.0193 9.56575 8.04674 13.3522 1.70833C13.9999 0.601622 14.5977 0.601621 15.3451 1.20528C16.8397 2.31199 17.5372 3.36839 17.5372 5.17937C17.5372 5.88363 17.4376 6.68851 17.2881 7.594C16.5906 11.6687 16.1422 16.9004 15.7934 22.6855C19.1813 15.4919 24.014 6.68851 27.3022 1.50711C28.0496 0.450706 28.6474 0.70223 29.1955 1.65802C29.4944 2.26168 29.6439 2.91565 29.6439 3.61991C29.6439 4.82723 29.3449 6.5879 27.8005 9.10315C25.0104 13.7312 18.8824 25.5528 15.8433 32.344C15.5443 32.9477 14.9963 33.2495 14.1493 32.7967C12.5052 31.9416 11.7081 30.6336 11.5088 28.0681Z" fill="white"/>
<path d="M38.7087 20.8242C39.3065 16.6489 40.303 11.7693 41.5485 7.99644C38.3599 11.8699 34.7728 16.6992 31.634 21.6291C32.6304 21.5285 33.6269 21.4278 34.5735 21.2769C36.2674 21.0757 37.3635 20.8745 38.7087 20.8242ZM40.1535 32.6458C39.0574 32.0925 38.1108 30.7845 38.061 27.8669C38.061 26.9614 38.061 25.8044 38.2104 24.4964L34.7229 24.8486C32.7301 25.0498 30.787 25.251 29.392 25.2007C28.0468 27.565 26.9508 30.0803 25.8049 32.1428C25.207 33.1992 24.36 32.998 24.0113 32.2937C23.7124 31.69 23.4134 31.2373 23.4134 30.4324C23.4134 29.6275 23.6127 28.4705 24.2106 27.0117C24.5095 26.2571 24.8583 25.4019 25.4063 24.3455C24.5095 23.6916 24.0611 22.9873 23.9116 22.6855C23.5131 21.7297 23.7124 21.4278 25.0077 21.6291C25.7052 21.7297 26.1038 21.78 26.8013 21.8303C30.5379 15.2403 37.4133 5.5315 42.6446 1.05437C43.7406 0.148878 44.488 0.199182 45.2353 1.20528C45.7335 1.85924 46.0324 2.4126 46.3812 3.26778C46.6303 3.87144 46.7798 4.42479 46.7798 5.02845C46.7798 5.63211 46.6801 6.33638 46.3812 7.09095C45.2353 10.7129 43.8403 15.9446 42.8937 21.2266C44.2389 21.8303 44.7371 22.7861 45.0858 23.8425C45.3349 24.6473 44.9862 24.8486 44.0894 24.6977L42.3456 24.3958C42.0467 26.9111 41.7976 29.4766 41.698 31.9416C41.698 32.847 41.0503 33.0483 40.1535 32.6458Z" fill="white"/>
<path d="M46.9903 29.6275C46.9903 29.0239 47.09 28.2693 47.2893 27.6153C48.5348 23.44 53.5668 13.2281 57.9511 6.38668C57.2038 6.48729 56.5063 6.5879 55.8088 6.5879C52.5704 6.5879 50.428 5.43089 49.88 3.469C49.7305 2.81503 50.1291 2.51321 50.8266 2.51321C55.1611 2.51321 63.1325 1.15497 66.0222 1.15497C68.314 1.15497 70.4065 1.75863 71.1538 3.87144C71.4029 4.4751 71.2036 5.07875 70.0577 4.97815C67.9154 4.72662 65.0258 5.17937 62.3354 5.63211C62.3852 7.44308 60.9404 10.3608 58.7981 14.1336C56.2073 18.8623 52.6202 25.5528 49.7305 32.1428C49.3319 33.0483 48.7341 33.0986 48.0366 32.3943C47.2893 31.69 46.9903 30.8852 46.9903 29.6275Z" fill="white"/>
<path d="M71.754 33.3501C70.6579 33.3501 69.7113 33.1489 68.8644 32.7967C66.7718 31.9416 64.8288 30.0803 64.8288 26.5589C64.8288 25.6031 64.9284 24.6473 65.1776 23.5406C66.5227 18.0574 72.1526 8.6504 76.6365 1.70833C77.334 0.70223 78.1312 0.853146 78.729 1.75863C79.1276 2.4126 79.3767 3.11687 79.3767 4.02235C79.3767 5.17937 78.9781 6.78912 77.8322 8.95223C75.4408 13.4294 70.6579 20.9248 69.3127 26.1565C69.1135 27.062 68.964 27.8669 68.964 28.5208C68.964 30.1809 69.7113 30.8852 70.8074 30.8852C73.3483 30.8852 76.6365 26.9111 79.576 21.0757C82.2664 15.7937 87.6969 5.98424 90.3873 1.65802C91.035 0.601621 91.8321 0.802842 92.43 1.70833C92.7289 2.26168 92.9282 3.01625 92.9282 3.77083C92.9282 4.87753 92.6293 6.38668 91.8321 8.09705C90.1382 11.9202 84.0101 23.3897 80.7219 27.9675C78.0814 31.6397 74.7931 33.3501 71.754 33.3501Z" fill="white"/>
<path d="M104.019 32.5452C103.471 33.4004 102.923 33.501 102.325 32.6961C99.2365 28.5711 96.845 25.3516 94.8522 23.0879C93.6066 25.5528 92.3113 28.4202 90.8166 32.1428C90.4679 33.0986 89.9198 33.1992 89.1725 32.4446C88.6245 31.8409 88.2259 31.0361 88.2259 29.7784C88.2259 29.0742 88.3255 28.1687 88.5746 27.2632C89.8202 22.8867 94.2045 13.7312 98.5888 6.83943C96.9447 6.53759 96.2472 5.83333 95.6493 4.77693C95.2507 4.07266 95.4998 3.67022 96.5461 3.5193C98.539 3.21747 100.432 2.66412 102.226 2.06046C104.119 1.45681 105.863 0.953754 107.706 0.853145C110.347 0.752537 112.788 1.85924 114.033 5.02845C115.379 8.39888 114.332 11.2663 112.489 13.8318C109.948 17.3028 104.816 20.3714 99.3859 21.78C101.18 23.9431 102.873 26.3577 103.82 28.219C104.268 29.0742 104.518 30.03 104.518 30.8349C104.518 31.4385 104.318 32.0422 104.019 32.5452ZM104.717 5.88363L102.774 6.53759C102.724 7.94613 102.126 9.7068 100.881 12.0711C99.5354 14.5864 98.2899 16.6992 97.3931 18.2586C107.357 15.6931 112.24 9.05284 110.945 5.73272C110.646 4.92784 110.098 4.67631 109.35 4.67631C108.204 4.67631 106.311 5.33028 104.717 5.88363Z" fill="white"/>
<path d="M110.42 30.2815C110.022 29.6275 110.121 28.9736 110.62 27.565C112.862 21.6291 117.644 12.5239 121.78 6.03455C120.634 5.27997 120.036 4.4751 119.787 3.5193C119.637 2.81503 120.185 2.51321 120.933 2.51321C123.673 2.51321 126.313 2.21138 128.705 1.80894C130.399 1.55741 131.794 1.30589 133.089 1.30589C135.381 1.25559 136.626 2.16107 137.274 3.92174C137.473 4.4751 137.125 4.92784 136.178 4.92784C133.687 4.92784 130.997 5.43089 128.655 5.88363C127.908 6.03455 127.409 6.13516 126.662 6.23577C125.018 8.75101 122.726 12.9263 120.385 17.2022C121.431 17.0513 122.278 17.001 122.975 16.9507C125.715 16.8501 127.011 17.7556 127.559 19.3653C127.808 20.0193 127.708 20.5224 126.562 20.5224C124.121 20.5224 120.634 21.126 117.943 21.8303C116.548 24.4964 115.502 26.5589 114.506 28.8227C116.548 28.2693 119.687 27.716 121.281 27.6153C123.972 27.5147 125.367 28.3196 125.965 29.9797C126.214 30.6839 126.064 31.0864 125.018 31.0864C122.377 31.0361 117.047 32.344 114.306 33.0986C113.111 33.4507 112.313 33.4507 111.666 32.4949C111.317 31.9919 110.968 31.187 110.42 30.2815Z" fill="white"/>
<path d="M142.699 30.2815C142.301 29.6275 142.4 28.9736 142.898 27.565C145.14 21.6291 149.923 12.5239 154.059 6.03455C152.913 5.27997 152.315 4.4751 152.066 3.5193C151.916 2.81503 152.464 2.51321 153.212 2.51321C155.952 2.51321 158.592 2.21138 160.984 1.80894C162.678 1.55741 164.073 1.30589 165.368 1.30589C167.66 1.25559 168.905 2.16107 169.553 3.92174C169.752 4.4751 169.404 4.92784 168.457 4.92784C165.966 4.92784 163.276 5.43089 160.934 5.88363C160.187 6.03455 159.688 6.13516 158.941 6.23577C157.297 8.75101 155.005 12.9263 152.664 17.2022C153.71 17.0513 154.557 17.001 155.254 16.9507C157.994 16.8501 159.29 17.7556 159.838 19.3653C160.087 20.0193 159.987 20.5224 158.841 20.5224C156.4 20.5224 152.913 21.126 150.222 21.8303C148.827 24.4964 147.781 26.5589 146.785 28.8227C148.827 28.2693 151.966 27.716 153.56 27.6153C156.251 27.5147 157.646 28.3196 158.244 29.9797C158.493 30.6839 158.343 31.0864 157.297 31.0864C154.656 31.0361 149.325 32.344 146.585 33.0986C145.39 33.4507 144.592 33.4507 143.945 32.4949C143.596 31.9919 143.247 31.187 142.699 30.2815Z" fill="white"/>
<path d="M172.65 1.15497C174.095 1.4065 175.938 2.4126 176.885 5.73272C177.234 6.99034 177.582 9.15345 177.931 11.719C181.917 7.594 185.903 3.72052 188.394 1.4065C189.44 0.400402 190.138 0.802841 190.387 1.85924C190.686 3.31809 190.138 5.83333 186.999 8.95223C184.209 11.6687 181.568 14.1839 178.679 17.1016C179.476 22.7358 180.472 28.7724 182.216 31.5894C182.864 32.6458 182.166 33.0483 181.219 32.9477C179.077 32.7967 176.935 31.4385 175.689 26.3577C175.241 24.4461 174.992 23.3394 174.643 21.2769C171.155 24.9492 167.618 28.9736 165.077 32.5955C164.43 33.4507 163.632 33.2495 163.334 32.3943C163.134 31.8913 163.035 31.3882 163.035 30.8852C163.035 29.9294 163.483 28.5208 164.479 26.9614C165.874 24.8486 169.611 20.5224 173.846 16.0452C173.148 11.2663 172.401 6.48729 171.405 2.16107C171.205 1.4065 171.803 1.00406 172.65 1.15497Z" fill="white"/>
<path d="M203.759 21.5788C204.108 20.8745 205.254 20.5727 205.752 21.7297C206.001 22.283 206.101 22.8867 206.101 23.3897C206.101 26.3074 203.411 29.2251 201.617 30.5833C199.574 32.0422 197.332 32.6458 195.19 32.6458C193.546 32.6458 192.051 32.2937 190.806 31.5894C188.464 30.3318 186.422 27.1626 186.322 23.0376C186.123 12.876 195.041 3.77083 200.671 1.20528C201.966 0.70223 203.361 0.350098 204.606 0.350098C205.852 0.350098 206.998 0.70223 207.845 1.4065C209.539 2.91565 210.834 4.87753 210.834 6.83943C210.834 7.74491 210.635 8.75101 210.137 9.75711C209.29 11.4675 208.592 13.1778 208.243 14.2845C207.994 15.1397 207.297 15.6428 206.3 15.0391C205.304 14.3852 204.606 13.2784 204.606 11.8196C204.606 11.2159 204.706 10.6123 204.905 9.95833C205.105 9.20376 205.453 8.39888 205.752 7.6443C206.45 5.88363 207.048 4.27388 206.45 3.61991C205.254 2.31199 198.179 6.68851 194.044 13.4294C191.852 17.001 190.905 21.126 190.905 24.1443C190.905 28.4705 192.799 30.3821 194.592 30.3821C197.332 30.3821 200.87 27.1626 203.759 21.5788Z" fill="white"/>
<path d="M208.438 30.2815C208.04 29.6275 208.139 28.9736 208.638 27.565C210.88 21.6291 215.663 12.5239 219.798 6.03455C218.652 5.27997 218.054 4.4751 217.805 3.5193C217.655 2.81503 218.203 2.51321 218.951 2.51321C221.691 2.51321 224.331 2.21138 226.723 1.80894C228.417 1.55741 229.812 1.30589 231.107 1.30589C233.399 1.25559 234.645 2.16107 235.292 3.92174C235.492 4.4751 235.143 4.92784 234.196 4.92784C231.705 4.92784 229.015 5.43089 226.673 5.88363C225.926 6.03455 225.428 6.13516 224.68 6.23577C223.036 8.75101 220.744 12.9263 218.403 17.2022C219.449 17.0513 220.296 17.001 220.993 16.9507C223.734 16.8501 225.029 17.7556 225.577 19.3653C225.826 20.0193 225.727 20.5224 224.581 20.5224C222.139 20.5224 218.652 21.126 215.961 21.8303C214.566 24.4964 213.52 26.5589 212.524 28.8227C214.566 28.2693 217.705 27.716 219.3 27.6153C221.99 27.5147 223.385 28.3196 223.983 29.9797C224.232 30.6839 224.082 31.0864 223.036 31.0864C220.396 31.0361 215.065 32.344 212.324 33.0986C211.129 33.4507 210.332 33.4507 209.684 32.4949C209.335 31.9919 208.986 31.187 208.438 30.2815Z" fill="white"/>
<path d="M242.349 9.05284C238.014 17.0513 234.776 22.6855 232.036 28.5711C234.477 27.9675 236.868 27.6153 238.662 27.4644C241.402 27.2632 242.847 28.3196 243.495 29.8791C243.744 30.4827 243.644 30.9858 242.498 30.9858C240.156 30.9355 234.826 32.1931 231.986 32.9477C230.541 33.2998 229.893 33.2998 229.196 32.2937C228.698 31.5894 228.05 30.6839 227.851 30.1306C227.502 29.2251 227.502 28.4202 228 27.062C230.391 20.9248 238.612 5.83333 241.701 1.60772C242.498 0.50101 243.096 0.853146 243.594 1.75863C243.843 2.26168 244.043 3.01625 244.043 3.82113C244.043 5.07875 243.594 6.83943 242.349 9.05284Z" fill="white"/>
<path d="M261.929 20.8242C262.527 16.6489 263.523 11.7693 264.769 7.99644C261.58 11.8699 257.993 16.6992 254.854 21.6291C255.851 21.5285 256.847 21.4278 257.794 21.2769C259.488 21.0757 260.584 20.8745 261.929 20.8242ZM263.374 32.6458C262.278 32.0925 261.331 30.7845 261.281 27.8669C261.281 26.9614 261.281 25.8044 261.431 24.4964L257.943 24.8486C255.95 25.0498 254.007 25.251 252.612 25.2007C251.267 27.565 250.171 30.0803 249.025 32.1428C248.427 33.1992 247.58 32.998 247.232 32.2937C246.933 31.69 246.634 31.2373 246.634 30.4324C246.634 29.6275 246.833 28.4705 247.431 27.0117C247.73 26.2571 248.079 25.4019 248.627 24.3455C247.73 23.6916 247.281 22.9873 247.132 22.6855C246.733 21.7297 246.933 21.4278 248.228 21.6291C248.925 21.7297 249.324 21.78 250.022 21.8303C253.758 15.2403 260.634 5.5315 265.865 1.05437C266.961 0.148878 267.708 0.199182 268.456 1.20528C268.954 1.85924 269.253 2.4126 269.601 3.26778C269.851 3.87144 270 4.42479 270 5.02845C270 5.63211 269.9 6.33638 269.601 7.09095C268.456 10.7129 267.061 15.9446 266.114 21.2266C267.459 21.8303 267.957 22.7861 268.306 23.8425C268.555 24.6473 268.206 24.8486 267.31 24.6977L265.566 24.3958C265.267 26.9111 265.018 29.4766 264.918 31.9416C264.918 32.847 264.271 33.0483 263.374 32.6458Z" fill="white"/>
</svg>
