<svg width="347" height="41" viewBox="0 0 347 41" fill="none" xmlns="http://www.w3.org/2000/svg">
<path d="M14.7909 34.4375C14.6629 32.625 14.5988 31.375 14.5988 29.875C14.5988 26.25 14.855 21.0625 15.4312 15.75C10.8851 23.375 6.33897 32 3.52165 39.6875C3.07344 40.9375 2.11299 41 1.21657 40.0625C0.57627 39.25 0 38 0 36.5625C0 35.625 0.32015 34.125 0.83239 32.8125C4.16195 24.4375 12.2938 9.5625 17.16 1.6875C17.9924 0.3125 18.7608 0.3125 19.7212 1.0625C21.6421 2.4375 22.5386 3.75 22.5386 6C22.5386 6.875 22.4105 7.875 22.2184 9C21.322 14.0625 20.7457 20.5625 20.2975 27.75C24.6515 18.8125 30.8624 7.875 35.0884 1.4375C36.0489 0.124998 36.8172 0.437498 37.5216 1.625C37.9057 2.375 38.0978 3.1875 38.0978 4.0625C38.0978 5.5625 37.7137 7.75 35.7287 10.875C32.143 16.625 24.2674 31.3125 20.3615 39.75C19.9774 40.5 19.273 40.875 18.1845 40.3125C16.0715 39.25 15.047 37.625 14.7909 34.4375Z" fill="#171313"/>
<path d="M49.7478 25.4375C50.5162 20.25 51.7967 14.1875 53.3975 9.5C49.2996 14.3125 44.6894 20.3125 40.6555 26.4375C41.9361 26.3125 43.2167 26.1875 44.4333 26C46.6103 25.75 48.019 25.5 49.7478 25.4375ZM51.6047 40.125C50.196 39.4375 48.9794 37.8125 48.9154 34.1875C48.9154 33.0625 48.9154 31.625 49.1075 30L44.6254 30.4375C42.0642 30.6875 39.567 30.9375 37.7742 30.875C36.0454 33.8125 34.6367 36.9375 33.164 39.5C32.3957 40.8125 31.3072 40.5625 30.8589 39.6875C30.4748 38.9375 30.0906 38.375 30.0906 37.375C30.0906 36.375 30.3467 34.9375 31.1151 33.125C31.4992 32.1875 31.9475 31.125 32.6518 29.8125C31.4992 29 30.923 28.125 30.7309 27.75C30.2186 26.5625 30.4748 26.1875 32.1395 26.4375C33.036 26.5625 33.5482 26.625 34.4446 26.6875C39.2469 18.5 48.083 6.4375 54.8062 0.875C56.2148 -0.250001 57.1753 -0.187501 58.1357 1.0625C58.776 1.875 59.1602 2.5625 59.6084 3.625C59.9286 4.375 60.1206 5.0625 60.1206 5.8125C60.1206 6.5625 59.9926 7.4375 59.6084 8.375C58.1357 12.875 56.3429 19.375 55.1263 25.9375C56.8551 26.6875 57.4954 27.875 57.9436 29.1875C58.2638 30.1875 57.8156 30.4375 56.663 30.25L54.422 29.875C54.0378 33 53.7176 36.1875 53.5896 39.25C53.5896 40.375 52.7572 40.625 51.6047 40.125Z" fill="#171313"/>
<path d="M60.3913 36.375C60.3913 35.625 60.5193 34.6875 60.7755 33.875C62.3762 28.6875 68.8432 16 74.4779 7.5C73.5174 7.625 72.621 7.75 71.7246 7.75C67.5626 7.75 64.8093 6.3125 64.105 3.875C63.9129 3.0625 64.4252 2.6875 65.3216 2.6875C70.8922 2.6875 81.137 0.999998 84.8507 0.999998C87.7961 0.999998 90.4854 1.75 91.4458 4.375C91.766 5.125 91.5098 5.875 90.0371 5.75C87.2839 5.4375 83.5701 6 80.1125 6.5625C80.1765 8.8125 78.3197 12.4375 75.5664 17.125C72.2368 23 67.6267 31.3125 63.9129 39.5C63.4007 40.625 62.6323 40.6875 61.7359 39.8125C60.7755 38.9375 60.3913 37.9375 60.3913 36.375Z" fill="#171313"/>
<path d="M92.2172 41C90.8085 41 89.5919 40.75 88.5034 40.3125C85.8142 39.25 83.317 36.9375 83.317 32.5625C83.317 31.375 83.4451 30.1875 83.7652 28.8125C85.494 22 92.7294 10.3125 98.4921 1.6875C99.3885 0.437498 100.413 0.624999 101.181 1.75C101.694 2.5625 102.014 3.4375 102.014 4.5625C102.014 6 101.502 8 100.029 10.6875C96.9554 16.25 90.8085 25.5625 89.0797 32.0625C88.8236 33.1875 88.6315 34.1875 88.6315 35C88.6315 37.0625 89.5919 37.9375 91.0006 37.9375C94.2661 37.9375 98.4921 33 102.27 25.75C105.727 19.1875 112.707 7 116.164 1.625C116.997 0.3125 118.021 0.5625 118.79 1.6875C119.174 2.375 119.43 3.3125 119.43 4.25C119.43 5.625 119.046 7.5 118.021 9.625C115.844 14.375 107.969 28.625 103.743 34.3125C100.349 38.875 96.123 41 92.2172 41Z" fill="#171313"/>
<path d="M133.684 40C132.98 41.0625 132.275 41.1875 131.507 40.1875C127.537 35.0625 124.464 31.0625 121.903 28.25C120.302 31.3125 118.637 34.875 116.716 39.5C116.268 40.6875 115.564 40.8125 114.603 39.875C113.899 39.125 113.387 38.125 113.387 36.5625C113.387 35.6875 113.515 34.5625 113.835 33.4375C115.436 28 121.07 16.625 126.705 8.0625C124.592 7.6875 123.695 6.8125 122.927 5.5C122.415 4.625 122.735 4.125 124.08 3.9375C126.641 3.5625 129.074 2.875 131.379 2.125C133.812 1.375 136.053 0.749998 138.422 0.624999C141.816 0.500001 144.953 1.875 146.554 5.8125C148.283 10 146.938 13.5625 144.569 16.75C141.304 21.0625 134.709 24.875 127.729 26.625C130.034 29.3125 132.211 32.3125 133.428 34.625C134.004 35.6875 134.324 36.875 134.324 37.875C134.324 38.625 134.068 39.375 133.684 40ZM134.581 6.875L132.083 7.6875C132.019 9.4375 131.251 11.625 129.65 14.5625C127.921 17.6875 126.321 20.3125 125.168 22.25C137.974 19.0625 144.249 10.8125 142.584 6.6875C142.2 5.6875 141.496 5.375 140.535 5.375C139.063 5.375 136.629 6.1875 134.581 6.875Z" fill="#171313"/>
<path d="M141.91 37.1875C141.398 36.375 141.526 35.5625 142.167 33.8125C145.048 26.4375 151.195 15.125 156.509 7.0625C155.037 6.125 154.268 5.125 153.948 3.9375C153.756 3.0625 154.46 2.6875 155.421 2.6875C158.942 2.6875 162.336 2.3125 165.409 1.8125C167.586 1.5 169.379 1.1875 171.044 1.1875C173.989 1.125 175.59 2.25 176.423 4.4375C176.679 5.125 176.231 5.6875 175.014 5.6875C171.812 5.6875 168.355 6.3125 165.345 6.875C164.385 7.0625 163.745 7.1875 162.784 7.3125C160.671 10.4375 157.726 15.625 154.716 20.9375C156.061 20.75 157.15 20.6875 158.046 20.625C161.568 20.5 163.232 21.625 163.937 23.625C164.257 24.4375 164.129 25.0625 162.656 25.0625C159.519 25.0625 155.037 25.8125 151.579 26.6875C149.786 30 148.442 32.5625 147.161 35.375C149.786 34.6875 153.82 34 155.869 33.875C159.327 33.75 161.119 34.75 161.888 36.8125C162.208 37.6875 162.016 38.1875 160.671 38.1875C157.278 38.125 150.426 39.75 146.905 40.6875C145.368 41.125 144.344 41.125 143.511 39.9375C143.063 39.3125 142.615 38.3125 141.91 37.1875Z" fill="#171313"/>
<path d="M183.395 37.1875C182.883 36.375 183.011 35.5625 183.651 33.8125C186.532 26.4375 192.679 15.125 197.994 7.0625C196.521 6.125 195.753 5.125 195.432 3.9375C195.24 3.0625 195.945 2.6875 196.905 2.6875C200.427 2.6875 203.82 2.3125 206.894 1.8125C209.071 1.5 210.864 1.1875 212.528 1.1875C215.474 1.125 217.075 2.25 217.907 4.4375C218.163 5.125 217.715 5.6875 216.498 5.6875C213.297 5.6875 209.839 6.3125 206.83 6.875C205.869 7.0625 205.229 7.1875 204.269 7.3125C202.156 10.4375 199.21 15.625 196.201 20.9375C197.545 20.75 198.634 20.6875 199.53 20.625C203.052 20.5 204.717 21.625 205.421 23.625C205.741 24.4375 205.613 25.0625 204.141 25.0625C201.003 25.0625 196.521 25.8125 193.063 26.6875C191.271 30 189.926 32.5625 188.645 35.375C191.271 34.6875 195.304 34 197.353 33.875C200.811 33.75 202.604 34.75 203.372 36.8125C203.692 37.6875 203.5 38.1875 202.156 38.1875C198.762 38.125 191.911 39.75 188.389 40.6875C186.852 41.125 185.828 41.125 184.996 39.9375C184.547 39.3125 184.099 38.3125 183.395 37.1875Z" fill="#171313"/>
<path d="M221.887 0.999998C223.744 1.3125 226.113 2.5625 227.33 6.6875C227.778 8.25 228.226 10.9375 228.675 14.125C233.797 9 238.919 4.1875 242.121 1.3125C243.465 0.0624992 244.362 0.5625 244.682 1.875C245.066 3.6875 244.362 6.8125 240.328 10.6875C236.742 14.0625 233.349 17.1875 229.635 20.8125C230.659 27.8125 231.94 35.3125 234.181 38.8125C235.014 40.125 234.117 40.625 232.901 40.5C230.147 40.3125 227.394 38.625 225.793 32.3125C225.217 29.9375 224.897 28.5625 224.449 26C219.966 30.5625 215.42 35.5625 212.155 40.0625C211.322 41.125 210.298 40.875 209.914 39.8125C209.658 39.1875 209.53 38.5625 209.53 37.9375C209.53 36.75 210.106 35 211.386 33.0625C213.179 30.4375 217.982 25.0625 223.424 19.5C222.528 13.5625 221.567 7.625 220.287 2.25C220.031 1.3125 220.799 0.812501 221.887 0.999998Z" fill="#171313"/>
<path d="M261.869 26.375C262.317 25.5 263.789 25.125 264.43 26.5625C264.75 27.25 264.878 28 264.878 28.625C264.878 32.25 261.42 35.875 259.115 37.5625C256.49 39.375 253.609 40.125 250.855 40.125C248.742 40.125 246.822 39.6875 245.221 38.8125C242.211 37.25 239.586 33.3125 239.458 28.1875C239.202 15.5625 250.663 4.25 257.899 1.0625C259.564 0.437498 261.356 0 262.957 0C264.558 0 266.031 0.437498 267.119 1.3125C269.296 3.1875 270.961 5.625 270.961 8.0625C270.961 9.1875 270.705 10.4375 270.064 11.6875C268.976 13.8125 268.08 15.9375 267.631 17.3125C267.311 18.375 266.415 19 265.134 18.25C263.854 17.4375 262.957 16.0625 262.957 14.25C262.957 13.5 263.085 12.75 263.341 11.9375C263.597 11 264.046 10 264.43 9.0625C265.326 6.875 266.095 4.875 265.326 4.0625C263.79 2.4375 254.697 7.875 249.383 16.25C246.565 20.6875 245.349 25.8125 245.349 29.5625C245.349 34.9375 247.782 37.3125 250.087 37.3125C253.609 37.3125 258.155 33.3125 261.869 26.375Z" fill="#171313"/>
<path d="M267.882 37.1875C267.37 36.375 267.498 35.5625 268.138 33.8125C271.019 26.4375 277.166 15.125 282.481 7.0625C281.008 6.125 280.24 5.125 279.92 3.9375C279.727 3.0625 280.432 2.6875 281.392 2.6875C284.914 2.6875 288.307 2.3125 291.381 1.8125C293.558 1.5 295.351 1.1875 297.016 1.1875C299.961 1.125 301.562 2.25 302.394 4.4375C302.65 5.125 302.202 5.6875 300.985 5.6875C297.784 5.6875 294.326 6.3125 291.317 6.875C290.356 7.0625 289.716 7.1875 288.756 7.3125C286.643 10.4375 283.697 15.625 280.688 20.9375C282.033 20.75 283.121 20.6875 284.017 20.625C287.539 20.5 289.204 21.625 289.908 23.625C290.228 24.4375 290.1 25.0625 288.628 25.0625C285.49 25.0625 281.008 25.8125 277.55 26.6875C275.758 30 274.413 32.5625 273.132 35.375C275.758 34.6875 279.792 34 281.84 33.875C285.298 33.75 287.091 34.75 287.859 36.8125C288.179 37.6875 287.987 38.1875 286.643 38.1875C283.249 38.125 276.398 39.75 272.876 40.6875C271.34 41.125 270.315 41.125 269.483 39.9375C269.034 39.3125 268.586 38.3125 267.882 37.1875Z" fill="#171313"/>
<path d="M311.463 10.8125C305.892 20.75 301.73 27.75 298.209 35.0625C301.346 34.3125 304.42 33.875 306.725 33.6875C310.246 33.4375 312.103 34.75 312.936 36.6875C313.256 37.4375 313.128 38.0625 311.655 38.0625C308.645 38 301.794 39.5625 298.145 40.5C296.288 40.9375 295.455 40.9375 294.559 39.6875C293.919 38.8125 293.086 37.6875 292.83 37C292.382 35.875 292.382 34.875 293.022 33.1875C296.096 25.5625 306.661 6.8125 310.63 1.5625C311.655 0.187498 312.423 0.624999 313.064 1.75C313.384 2.375 313.64 3.3125 313.64 4.3125C313.64 5.875 313.064 8.0625 311.463 10.8125Z" fill="#171313"/>
<path d="M336.627 25.4375C337.395 20.25 338.676 14.1875 340.277 9.5C336.179 14.3125 331.569 20.3125 327.535 26.4375C328.815 26.3125 330.096 26.1875 331.313 26C333.49 25.75 334.898 25.5 336.627 25.4375ZM338.484 40.125C337.075 39.4375 335.859 37.8125 335.795 34.1875C335.795 33.0625 335.795 31.625 335.987 30L331.505 30.4375C328.944 30.6875 326.446 30.9375 324.654 30.875C322.925 33.8125 321.516 36.9375 320.043 39.5C319.275 40.8125 318.186 40.5625 317.738 39.6875C317.354 38.9375 316.97 38.375 316.97 37.375C316.97 36.375 317.226 34.9375 317.994 33.125C318.379 32.1875 318.827 31.125 319.531 29.8125C318.379 29 317.802 28.125 317.61 27.75C317.098 26.5625 317.354 26.1875 319.019 26.4375C319.915 26.5625 320.428 26.625 321.324 26.6875C326.126 18.5 334.962 6.4375 341.686 0.875C343.094 -0.250001 344.055 -0.187501 345.015 1.0625C345.655 1.875 346.04 2.5625 346.488 3.625C346.808 4.375 347 5.0625 347 5.8125C347 6.5625 346.872 7.4375 346.488 8.375C345.015 12.875 343.222 19.375 342.006 25.9375C343.734 26.6875 344.375 27.875 344.823 29.1875C345.143 30.1875 344.695 30.4375 343.542 30.25L341.301 29.875C340.917 33 340.597 36.1875 340.469 39.25C340.469 40.375 339.637 40.625 338.484 40.125Z" fill="#171313"/>
</svg>
