<svg width="55" height="29" viewBox="0 0 55 29" fill="none" xmlns="http://www.w3.org/2000/svg">
<path d="M4.60928 10.9678C4.56937 10.3893 4.54942 9.99032 4.54942 9.51154C4.54942 8.35449 4.62923 6.69871 4.80881 5.00304C3.39211 7.43683 1.9754 10.1898 1.09745 12.6436C0.957772 13.0425 0.658468 13.0625 0.379118 12.7633C0.179582 12.5039 0 12.1049 0 11.6461C0 11.3469 0.0997679 10.8681 0.259397 10.4492C1.29698 7.77597 3.83109 3.02807 5.34756 0.514478C5.60696 0.075597 5.8464 0.075597 6.1457 0.314986C6.74431 0.753867 7.02366 1.1728 7.02366 1.89097C7.02366 2.17026 6.98375 2.48944 6.92389 2.84853C6.64454 4.46441 6.46496 6.53912 6.32529 8.83327C7.68213 5.98054 9.61763 2.48944 10.9346 0.434682C11.2339 0.0157491 11.4733 0.115495 11.6928 0.494528C11.8125 0.733919 11.8724 0.993258 11.8724 1.27255C11.8724 1.75132 11.7527 2.44955 11.1341 3.447C10.0167 5.28232 7.56241 9.97037 6.34524 12.6635C6.22552 12.9029 6.00603 13.0226 5.66682 12.843C5.00835 12.5039 4.68909 11.9852 4.60928 10.9678Z" fill="#171313"/>
<path d="M15.5028 8.09515C15.7423 6.43937 16.1414 4.50431 16.6402 3.00812C15.3632 4.54421 13.9265 6.45932 12.6694 8.41434C13.0685 8.37444 13.4676 8.33454 13.8467 8.2747C14.5251 8.1949 14.9641 8.1151 15.5028 8.09515ZM16.0815 12.7832C15.6425 12.5638 15.2634 12.0451 15.2434 10.888C15.2434 10.5289 15.2434 10.0701 15.3033 9.55144L13.9066 9.69108C13.1084 9.77088 12.3302 9.85068 11.7715 9.83073C11.2328 10.7683 10.7938 11.7658 10.3349 12.5837C10.0954 13.0026 9.75621 12.9228 9.61654 12.6436C9.49681 12.4042 9.37709 12.2246 9.37709 11.9054C9.37709 11.5863 9.45691 11.1274 9.69635 10.5489C9.81607 10.2497 9.95575 9.91053 10.1752 9.49159C9.81607 9.23225 9.63649 8.95297 9.57663 8.83327C9.417 8.45424 9.49681 8.33454 10.0156 8.41434C10.295 8.45424 10.4546 8.47419 10.7339 8.49414C12.2305 5.8808 14.984 2.03061 17.0792 0.255139C17.5182 -0.103945 17.8175 -0.0839965 18.1168 0.314986C18.3163 0.574325 18.436 0.793766 18.5757 1.1329C18.6755 1.37229 18.7353 1.59173 18.7353 1.83112C18.7353 2.07051 18.6954 2.3498 18.5757 2.64904C18.1168 4.08537 17.5581 6.16009 17.1789 8.25475C17.7177 8.49413 17.9172 8.87317 18.0569 9.2921C18.1567 9.61129 18.017 9.69108 17.6578 9.63124L16.9595 9.51154C16.8397 10.509 16.74 11.5264 16.7001 12.5039C16.7001 12.863 16.4407 12.9428 16.0815 12.7832Z" fill="#171313"/>
<path d="M18.8197 11.5863C18.8197 11.3469 18.8596 11.0476 18.9394 10.7883C19.4382 9.13251 21.4535 5.08283 23.2094 2.36975C22.9101 2.40965 22.6308 2.44955 22.3514 2.44955C21.0545 2.44955 20.1965 1.99072 19.977 1.2127C19.9171 0.953359 20.0767 0.833664 20.3561 0.833664C22.092 0.833664 25.2846 0.295037 26.4419 0.295037C27.3598 0.295037 28.1978 0.534427 28.4971 1.37229C28.5969 1.61168 28.5171 1.85107 28.0582 1.81117C27.2002 1.71143 26.0429 1.89097 24.9654 2.07051C24.9853 2.78868 24.4067 3.94573 23.5487 5.44192C22.5111 7.31714 21.0744 9.97037 19.9171 12.5837C19.7575 12.9428 19.518 12.9627 19.2387 12.6835C18.9394 12.4042 18.8197 12.085 18.8197 11.5863Z" fill="#171313"/>
<path d="M28.7375 13.0625C28.2985 13.0625 27.9194 12.9827 27.5802 12.843C26.7422 12.5039 25.964 11.7658 25.964 10.3694C25.964 9.99032 26.0039 9.61129 26.1036 9.17241C26.6424 6.99795 28.8972 3.26746 30.693 0.514478C30.9723 0.115495 31.2916 0.175343 31.531 0.534427C31.6906 0.793766 31.7904 1.07305 31.7904 1.43214C31.7904 1.89097 31.6308 2.52934 31.1719 3.38716C30.2141 5.16263 28.2985 8.13505 27.7598 10.2098C27.68 10.5688 27.6201 10.888 27.6201 11.1474C27.6201 11.8057 27.9194 12.085 28.3584 12.085C29.376 12.085 30.693 10.509 31.8702 8.1949C32.9477 6.10024 35.1227 2.21016 36.2002 0.494528C36.4596 0.075597 36.7788 0.155394 37.0183 0.514478C37.138 0.733919 37.2178 1.03316 37.2178 1.33239C37.2178 1.77127 37.0981 2.36975 36.7788 3.04802C36.1004 4.56415 33.6461 9.11256 32.3292 10.9279C31.2716 12.3842 29.9547 13.0625 28.7375 13.0625Z" fill="#171313"/>
<path d="M41.6598 12.7433C41.4403 13.0824 41.2208 13.1223 40.9814 12.8032C39.7443 11.1673 38.7865 9.89058 37.9883 8.99286C37.4895 9.97037 36.9707 11.1075 36.3721 12.5837C36.2324 12.9627 36.0129 13.0026 35.7136 12.7034C35.4941 12.464 35.3345 12.1448 35.3345 11.6461C35.3345 11.3668 35.3744 11.0077 35.4742 10.6486C35.973 8.91307 37.729 5.28232 39.4849 2.54929C38.8264 2.4296 38.5471 2.15031 38.3076 1.73138C38.148 1.45209 38.2477 1.29249 38.6668 1.23265C39.4649 1.11295 40.2231 0.893512 40.9415 0.654122C41.6997 0.414733 42.3981 0.21524 43.1364 0.175343C44.1939 0.135445 45.1716 0.574325 45.6705 1.83112C46.2092 3.16771 45.7902 4.30482 45.0519 5.32222C44.0343 6.69871 41.9791 7.91561 39.8041 8.47419C40.5225 9.332 41.2009 10.2896 41.58 11.0277C41.7596 11.3668 41.8593 11.7458 41.8593 12.065C41.8593 12.3044 41.7795 12.5438 41.6598 12.7433ZM41.9392 2.17026L41.161 2.4296C41.141 2.98817 40.9016 3.68639 40.4027 4.624C39.864 5.62146 39.3651 6.45932 39.006 7.07775C42.9967 6.06034 44.9521 3.42705 44.4334 2.11041C44.3136 1.79122 44.0941 1.69148 43.7948 1.69148C43.3359 1.69148 42.5777 1.95082 41.9392 2.17026Z" fill="#171313"/>
<path d="M44.2234 11.8456C44.0637 11.5863 44.1036 11.3269 44.3032 10.7683C45.2011 8.41434 47.1166 4.80354 48.7728 2.2301C48.3139 1.93087 48.0744 1.61168 47.9746 1.23265C47.9148 0.953359 48.1343 0.833664 48.4336 0.833664C49.531 0.833664 50.5886 0.71397 51.5463 0.554376C52.2248 0.454631 52.7835 0.354885 53.3022 0.354885C54.2201 0.334936 54.719 0.694021 54.9784 1.39224C55.0582 1.61168 54.9185 1.79122 54.5394 1.79122C53.5417 1.79122 52.4642 1.99072 51.5264 2.17026C51.2271 2.2301 51.0275 2.27 50.7282 2.3099C50.0698 3.30736 49.1519 4.96314 48.2141 6.65881C48.6331 6.59897 48.9723 6.57902 49.2517 6.55907C50.3491 6.51917 50.8679 6.87826 51.0874 7.51663C51.1872 7.77597 51.1473 7.97546 50.6883 7.97546C49.7106 7.97546 48.3139 8.21485 47.2364 8.49414C46.6777 9.55144 46.2586 10.3694 45.8596 11.2671C46.6777 11.0476 47.9347 10.8282 48.5733 10.7883C49.6507 10.7484 50.2094 11.0676 50.4489 11.7259C50.5487 12.0052 50.4888 12.1648 50.0698 12.1648C49.0122 12.1448 46.8772 12.6635 45.7798 12.9627C45.3009 13.1024 44.9816 13.1024 44.7222 12.7234C44.5825 12.5239 44.4429 12.2047 44.2234 11.8456Z" fill="#171313"/>
<path d="M0.767823 27.7973C0.608194 27.5379 0.648102 27.2786 0.847637 26.72C1.74555 24.366 3.66109 20.7552 5.31724 18.1818C4.85831 17.8826 4.61886 17.5634 4.5191 17.1843C4.45924 16.905 4.67873 16.7854 4.97803 16.7854C6.07548 16.7854 7.13302 16.6657 8.09079 16.5061C8.76921 16.4063 9.32791 16.3066 9.8467 16.3066C10.7646 16.2866 11.2634 16.6457 11.5228 17.3439C11.6026 17.5634 11.4629 17.7429 11.0838 17.7429C10.0861 17.7429 9.00865 17.9424 8.07083 18.1219C7.77153 18.1818 7.57199 18.2217 7.27269 18.2616C6.61422 19.259 5.69636 20.9148 4.75854 22.6105C5.17756 22.5507 5.51678 22.5307 5.79613 22.5108C6.89357 22.4709 7.41237 22.8299 7.63186 23.4683C7.73162 23.7277 7.69172 23.9271 7.23278 23.9271C6.25506 23.9271 4.85831 24.1665 3.78081 24.4458C3.22211 25.5031 2.80309 26.321 2.40402 27.2188C3.22211 26.9993 4.47919 26.7799 5.1177 26.74C6.1952 26.7001 6.7539 27.0193 6.99334 27.6776C7.09311 27.9569 7.03325 28.1165 6.61422 28.1165C5.55668 28.0965 3.42165 28.6152 2.3242 28.9144C1.84532 29.0541 1.52606 29.0541 1.26666 28.675C1.12699 28.4755 0.987312 28.1564 0.767823 27.7973Z" fill="#171313"/>
<path d="M12.7632 16.2467C13.3419 16.3465 14.0801 16.7455 14.4593 18.0621C14.5989 18.5608 14.7386 19.4186 14.8783 20.436C16.4746 18.8002 18.0709 17.2641 19.0685 16.3465C19.4876 15.9475 19.7669 16.1071 19.8667 16.526C19.9864 17.1045 19.7669 18.102 18.5098 19.3388C17.3924 20.4161 16.3349 21.4136 15.1776 22.5706C15.4968 24.8049 15.8959 27.1988 16.5943 28.316C16.8537 28.7349 16.5743 28.8945 16.1952 28.8546C15.3372 28.7947 14.4792 28.2561 13.9804 26.2412C13.8008 25.4832 13.701 25.0443 13.5613 24.2264C12.1646 25.6827 10.7479 27.2786 9.73026 28.7149C9.47086 29.0541 9.1516 28.9743 9.03188 28.6351C8.95207 28.4357 8.91216 28.2362 8.91216 28.0367C8.91216 27.6576 9.09174 27.0991 9.49081 26.4806C10.0495 25.6428 11.546 23.9271 13.2421 22.1517C12.9627 20.2565 12.6634 18.3613 12.2644 16.6457C12.1845 16.3465 12.424 16.1869 12.7632 16.2467Z" fill="#171313"/>
<path d="M25.2225 24.3461C25.3622 24.0668 25.8211 23.9471 26.0206 24.4059C26.1204 24.6254 26.1603 24.8648 26.1603 25.0642C26.1603 26.2213 25.0828 27.3783 24.3645 27.917C23.5464 28.4955 22.6485 28.7349 21.7905 28.7349C21.132 28.7349 20.5334 28.5952 20.0346 28.316C19.0967 27.8172 18.2787 26.5604 18.2387 24.9246C18.1589 20.8949 21.7306 17.2841 23.9854 16.2667C24.5042 16.0672 25.0629 15.9275 25.5617 15.9275C26.0605 15.9275 26.5195 16.0672 26.8587 16.3465C27.5371 16.9449 28.0559 17.723 28.0559 18.501C28.0559 18.8601 27.9761 19.259 27.7766 19.658C27.4373 20.3363 27.158 21.0146 27.0183 21.4535C26.9186 21.7926 26.6392 21.9921 26.2401 21.7527C25.8411 21.4934 25.5617 21.0545 25.5617 20.4759C25.5617 20.2366 25.6016 19.9972 25.6814 19.7378C25.7612 19.4386 25.9009 19.1194 26.0206 18.8202C26.3 18.1219 26.5394 17.4836 26.3 17.2242C25.8211 16.7056 22.9877 18.4411 21.3315 21.1143C20.4536 22.5307 20.0745 24.1665 20.0745 25.3635C20.0745 27.0791 20.8327 27.8372 21.551 27.8372C22.6485 27.8372 24.0652 26.5604 25.2225 24.3461Z" fill="#171313"/>
<path d="M27.0964 27.7973C26.9368 27.5379 26.9767 27.2786 27.1762 26.72C28.0741 24.366 29.9897 20.7552 31.6458 18.1818C31.1869 17.8826 30.9475 17.5634 30.8477 17.1843C30.7878 16.905 31.0073 16.7854 31.3066 16.7854C32.4041 16.7854 33.4616 16.6657 34.4194 16.5061C35.0978 16.4063 35.6565 16.3066 36.1753 16.3066C37.0932 16.2866 37.592 16.6457 37.8514 17.3439C37.9312 17.5634 37.7915 17.7429 37.4124 17.7429C36.4147 17.7429 35.3372 17.9424 34.3994 18.1219C34.1001 18.1818 33.9006 18.2217 33.6013 18.2616C32.9428 19.259 32.025 20.9148 31.0871 22.6105C33.5614 22.8649 31.8454 22.5307 32.1247 22.5108C33.2222 22.4709 33.741 22.8299 33.9605 23.4683C34.0602 23.7277 34.0203 23.9271 33.5614 23.9271C32.5837 23.9271 31.1869 24.1665 30.1094 24.4458C29.5507 25.5031 29.1317 26.321 28.7326 27.2188C29.5507 26.9993 30.8078 26.7799 31.4463 26.74C32.5238 26.7001 33.0825 27.0193 33.3219 27.6776C33.4217 27.9569 33.3618 28.1165 32.9428 28.1165C31.8853 28.0965 29.7502 28.6152 28.6528 28.9144C28.1739 29.0541 27.8547 29.0541 27.5953 28.675C27.4556 28.4755 27.3159 28.1564 27.0964 27.7973Z" fill="#171313"/>
<path d="M40.6775 19.3787C38.9415 22.5507 37.6445 24.785 36.5471 27.119C37.5248 26.8796 38.4826 26.74 39.2009 26.6801C40.2984 26.6003 40.877 27.0193 41.1364 27.6377C41.2362 27.8771 41.1963 28.0766 40.7373 28.0766C39.7995 28.0566 37.6645 28.5553 36.5271 28.8546C35.9485 28.9942 35.6891 28.9942 35.4097 28.5952C35.2102 28.316 34.9508 27.9569 34.871 27.7374C34.7313 27.3783 34.7313 27.0592 34.9309 26.5205C35.8886 24.0867 39.181 18.102 40.4181 16.4263C40.7373 15.9874 40.9768 16.127 41.1763 16.4861C41.2761 16.6856 41.3559 16.9848 41.3559 17.304C41.3559 17.8028 41.1763 18.501 40.6775 19.3787Z" fill="#171313"/>
<path d="M48.5194 24.0468C48.7588 22.3911 49.1579 20.456 49.6567 18.9598C48.3797 20.4959 46.9431 22.411 45.686 24.366C46.0851 24.3261 46.4841 24.2862 46.8632 24.2264C47.5417 24.1466 47.9806 24.0668 48.5194 24.0468ZM49.098 28.7349C48.6591 28.5154 48.28 27.9968 48.26 26.8397C48.26 26.4806 48.26 26.0218 48.3199 25.5031L46.9231 25.6428C46.125 25.7226 45.3468 25.8024 44.7881 25.7824C44.2493 26.72 43.8103 27.7175 43.3514 28.5354C43.112 28.9543 42.7728 28.8745 42.6331 28.5952C42.5134 28.3559 42.3936 28.1763 42.3936 27.8571C42.3936 27.5379 42.4735 27.0791 42.7129 26.5006C42.8326 26.2013 42.9723 25.8622 43.1918 25.4433C42.8326 25.1839 42.653 24.9047 42.5932 24.785C42.4336 24.4059 42.5134 24.2862 43.0322 24.366C43.3115 24.4059 43.4711 24.4259 43.7505 24.4458C45.247 21.8325 48.0006 17.9823 50.0957 16.2068C50.5347 15.8477 50.834 15.8677 51.1333 16.2667C51.3328 16.526 51.4526 16.7455 51.5922 17.0846C51.692 17.324 51.7519 17.5434 51.7519 17.7828C51.7519 18.0222 51.712 18.3015 51.5922 18.6007C51.1333 20.0371 50.5746 22.1118 50.1955 24.2064C50.7342 24.4458 50.9338 24.8249 51.0735 25.2438C51.1732 25.563 51.0335 25.6428 50.6744 25.5829L49.976 25.4632C49.8563 26.4607 49.7565 27.4781 49.7166 28.4556C49.7166 28.8147 49.4572 28.8945 49.098 28.7349Z" fill="#171313"/>
</svg>
