<svg width="541" height="66" viewBox="0 0 541 66" fill="none" xmlns="http://www.w3.org/2000/svg">
<path d="M23.0602 55.2962C22.8606 52.4228 22.7607 50.441 22.7607 48.063C22.7607 42.316 23.16 34.092 24.0585 25.6697C16.9707 37.7581 9.88295 51.4319 5.49053 63.6194C4.79173 65.6011 3.29432 65.7002 1.89673 64.2139C0.89845 62.9258 0 60.9441 0 58.6651C0 57.1788 0.499139 54.8008 1.29776 52.72C6.4888 39.4426 19.1669 15.8603 26.7538 3.3755C28.0516 1.19562 29.2495 1.19562 30.7469 2.38464C33.7418 4.56452 35.1394 6.64532 35.1394 10.2124C35.1394 11.5996 34.9397 13.1849 34.6402 14.9685C33.2426 22.9944 32.3442 33.2993 31.6454 44.6941C38.4337 30.5249 48.117 13.1849 54.7056 2.97916C56.203 0.898363 57.4009 1.39379 58.4991 3.27641C59.098 4.46544 59.3975 5.75355 59.3975 7.14074C59.3975 9.51879 58.7985 12.9868 55.7039 17.941C50.1135 27.0569 37.8347 50.342 31.7452 63.7185C31.1463 64.9075 30.0481 65.502 28.3511 64.6102C25.0568 62.9258 23.4595 60.3496 23.0602 55.2962Z" fill="white"/>
<path d="M77.5607 41.0279C78.7586 32.8038 80.7552 23.1926 83.2509 15.7612C76.8619 23.3907 69.6743 32.9029 63.3852 42.6133C65.3817 42.4151 67.3783 42.217 69.275 41.9197C72.6691 41.5234 74.8653 41.127 77.5607 41.0279ZM80.4557 64.313C78.2595 63.2231 76.3628 60.6468 76.2629 54.8999C76.2629 53.1164 76.2629 50.8374 76.5624 48.2612L69.5745 48.9548C65.5814 49.3511 61.6881 49.7474 58.8929 49.6484C56.1976 54.3054 54.0013 59.2596 51.7053 63.3221C50.5074 65.4029 48.8103 65.0066 48.1115 63.6194C47.5125 62.4304 46.9136 61.5386 46.9136 59.9532C46.9136 58.3679 47.3129 56.0889 48.5108 53.2154C49.1098 51.7292 49.8086 50.0447 50.9067 47.9639C49.1098 46.6758 48.2113 45.2886 47.9118 44.6941C47.1132 42.8115 47.5125 42.217 50.1081 42.6133C51.5056 42.8115 52.3043 42.9106 53.7019 43.0096C61.1889 30.0295 74.9652 10.906 85.4471 2.08739C87.6433 0.303853 89.1407 0.402936 90.6381 2.38464C91.6364 3.67275 92.2354 4.7627 92.9342 6.44714C93.4333 7.63617 93.7328 8.72611 93.7328 9.91513C93.7328 11.1042 93.5331 12.4914 92.9342 13.9776C90.6381 21.1118 87.8429 31.4167 85.9462 41.8206C88.6416 43.0096 89.6398 44.8923 90.3386 46.9731C90.8378 48.5584 90.139 48.9548 88.3421 48.6575L84.8481 48.063C84.2491 53.0173 83.75 58.0706 83.5504 62.9258C83.5504 64.7093 82.2526 65.1057 80.4557 64.313Z" fill="white"/>
<path d="M94.1547 58.3679C94.1547 57.1789 94.3544 55.6926 94.7537 54.4045C97.2494 46.1804 107.332 26.066 116.117 12.5904C114.619 12.7886 113.222 12.9868 111.824 12.9868C105.335 12.9868 101.043 10.7078 99.9447 6.84348C99.6452 5.55537 100.444 4.96086 101.841 4.96086C110.526 4.96086 126.499 2.28556 132.289 2.28556C136.881 2.28556 141.074 3.47458 142.571 7.63617C143.07 8.82519 142.671 10.0142 140.375 9.81605C136.082 9.32062 130.292 10.2124 124.902 11.1042C125.001 14.6712 122.106 20.4182 117.814 27.8496C112.623 37.1636 105.435 50.342 99.6452 63.3221C98.8466 65.1057 97.6487 65.2048 96.2511 63.8176C94.7537 62.4304 94.1547 60.845 94.1547 58.3679Z" fill="white"/>
<path d="M143.774 65.7002C141.578 65.7002 139.681 65.3038 137.984 64.6102C133.791 62.9258 129.898 59.2596 129.898 52.3237C129.898 50.441 130.097 48.5584 130.597 46.3785C133.292 35.5782 144.572 17.0493 153.557 3.3755C154.954 1.39379 156.552 1.69105 157.75 3.47458C158.548 4.7627 159.047 6.14989 159.047 7.93343C159.047 10.2124 158.249 13.3831 155.953 17.6438C151.161 26.4624 141.578 41.2261 138.882 51.531C138.483 53.3145 138.183 54.8999 138.183 56.188C138.183 59.4578 139.681 60.845 141.877 60.845C146.968 60.845 153.557 53.0173 159.447 41.5234C164.837 31.1194 175.719 11.7978 181.109 3.27641C182.407 1.19562 184.004 1.59196 185.202 3.3755C185.801 4.46544 186.201 5.95172 186.201 7.438C186.201 9.61787 185.602 12.5904 184.004 15.9593C180.61 23.4898 168.331 46.0813 161.743 55.0981C156.452 62.3313 149.863 65.7002 143.774 65.7002Z" fill="white"/>
<path d="M208.424 64.1148C207.326 65.7993 206.228 65.9974 205.03 64.4121C198.84 56.2871 194.049 49.9456 190.056 45.4868C187.56 50.342 184.964 55.9898 181.97 63.3221C181.271 65.2048 180.173 65.4029 178.675 63.9167C177.577 62.7276 176.779 61.1423 176.779 58.6651C176.779 57.2779 176.978 55.4944 177.477 53.7109C179.973 45.0904 188.758 27.0569 197.543 13.4822C194.248 12.8877 192.851 11.5005 191.653 9.41971C190.854 8.03251 191.353 7.23983 193.45 6.94257C197.443 6.34806 201.236 5.25812 204.83 4.0691C208.624 2.88007 212.118 1.88922 215.811 1.69105C221.102 1.49288 225.994 3.67275 228.489 9.91513C231.185 16.5539 229.088 22.2017 225.395 27.2551C220.303 34.092 210.021 40.1362 199.14 42.9106C202.734 47.1712 206.128 51.9273 208.025 55.5935C208.923 57.2779 209.422 59.1606 209.422 60.7459C209.422 61.935 209.023 63.124 208.424 64.1148ZM209.822 11.5996L205.928 12.8877C205.828 15.6621 204.63 19.1301 202.135 23.7871C199.439 28.7413 196.944 32.9029 195.147 35.9746C215.112 30.9212 224.896 17.842 222.3 11.3023C221.701 9.71696 220.603 9.22153 219.105 9.22153C216.809 9.22153 213.016 10.5096 209.822 11.5996Z" fill="white"/>
<path d="M221.249 59.656C220.451 58.3679 220.65 57.0798 221.649 54.3054C226.141 42.6133 235.724 24.6788 244.01 11.8968C241.714 10.4106 240.516 8.8252 240.017 6.94257C239.718 5.55537 240.816 4.96086 242.313 4.96086C247.804 4.96086 253.094 4.36635 257.886 3.57367C261.28 3.07824 264.076 2.58282 266.671 2.58282C271.263 2.48373 273.759 4.26727 275.057 7.73525C275.456 8.82519 274.757 9.71696 272.86 9.71696C267.869 9.71696 262.478 10.7078 257.786 11.5996C256.289 11.8968 255.291 12.095 253.793 12.2932C250.499 17.2474 245.907 25.4715 241.215 33.8938C243.311 33.5965 245.008 33.4974 246.406 33.3984C251.897 33.2002 254.492 34.9837 255.59 38.1545C256.089 39.4426 255.89 40.4334 253.594 40.4334C248.702 40.4334 241.714 41.6224 236.323 43.0096C233.528 48.2612 231.432 52.3237 229.435 56.7825C233.528 55.6926 239.817 54.6026 243.012 54.4045C248.403 54.2063 251.198 55.7917 252.396 59.0615C252.895 60.4487 252.595 61.2414 250.499 61.2414C245.208 61.1423 234.527 63.7185 229.036 65.2048C226.64 65.8984 225.043 65.8984 223.745 64.0157C223.046 63.0249 222.348 61.4395 221.249 59.656Z" fill="white"/>
<path d="M285.927 59.656C285.128 58.3679 285.328 57.0798 286.326 54.3054C290.818 42.6133 300.402 24.6788 308.688 11.8968C306.392 10.4106 305.194 8.8252 304.695 6.94257C304.395 5.55537 305.493 4.96086 306.991 4.96086C312.481 4.96086 317.772 4.36635 322.564 3.57367C325.958 3.07824 328.753 2.58282 331.349 2.58282C335.941 2.48373 338.436 4.26727 339.734 7.73525C340.133 8.82519 339.435 9.71696 337.538 9.71696C332.546 9.71696 327.156 10.7078 322.464 11.5996C320.966 11.8968 319.968 12.095 318.471 12.2932C315.176 17.2474 310.584 25.4715 305.892 33.8938C307.989 33.5965 309.686 33.4974 311.083 33.3984C316.574 33.2002 319.17 34.9837 320.268 38.1545C320.767 39.4426 320.567 40.4334 318.271 40.4334C313.38 40.4334 306.392 41.6224 301.001 43.0096C298.206 48.2612 296.109 52.3237 294.113 56.7825C298.206 55.6926 304.495 54.6026 307.689 54.4045C313.08 54.2063 315.875 55.7917 317.073 59.0615C317.572 60.4487 317.273 61.2414 315.176 61.2414C309.886 61.1423 299.204 63.7185 293.713 65.2048C291.318 65.8984 289.72 65.8984 288.423 64.0157C287.724 63.0249 287.025 61.4395 285.927 59.656Z" fill="white"/>
<path d="M345.94 2.28556C348.835 2.78098 352.528 4.7627 354.425 11.3023C355.124 13.7795 355.823 18.0401 356.521 23.0935C364.508 14.9685 372.494 7.33891 377.485 2.78098C379.582 0.799279 380.979 1.59196 381.478 3.67275C382.077 6.54623 380.979 11.5005 374.69 17.6438C369.1 22.9944 363.809 27.9487 358.019 33.6956C359.616 44.7932 361.613 56.6834 365.107 62.2322C366.404 64.313 365.007 65.1057 363.11 64.9075C358.818 64.6103 354.525 61.9349 352.029 51.9273C351.131 48.1621 350.632 45.9822 349.933 41.9197C342.945 49.1529 335.857 57.0798 330.766 64.2139C329.468 65.8984 327.871 65.502 327.272 63.8176C326.873 62.8267 326.673 61.8359 326.673 60.845C326.673 58.9624 327.571 56.188 329.568 53.1163C332.363 48.9548 339.85 40.4334 348.336 31.6148C346.938 22.2017 345.441 12.7886 343.444 4.26727C343.045 2.78098 344.243 1.98831 345.94 2.28556Z" fill="white"/>
<path d="M408.274 42.5142C408.972 41.127 411.268 40.5325 412.267 42.8115C412.766 43.9014 412.965 45.0904 412.965 46.0813C412.965 51.8282 407.575 57.5752 403.981 60.2505C399.888 63.124 395.396 64.313 391.103 64.313C387.809 64.313 384.814 63.6194 382.318 62.2322C377.626 59.7551 373.534 53.5127 373.334 45.3877C372.935 25.3724 390.804 7.438 402.084 2.38464C404.68 1.39379 407.475 0.700195 409.971 0.700195C412.466 0.700195 414.762 1.39379 416.459 2.78098C419.854 5.75355 422.449 9.61787 422.449 13.4822C422.449 15.2657 422.05 17.2474 421.052 19.2292C419.354 22.5981 417.957 25.967 417.258 28.1468C416.759 29.8313 415.361 30.8221 413.365 29.6331C411.368 28.345 409.971 26.1651 409.971 23.2917C409.971 22.1026 410.17 20.9136 410.57 19.6255C410.969 18.1392 411.668 16.5539 412.267 15.0676C413.664 11.5996 414.862 8.42885 413.664 7.14074C411.268 4.56452 397.093 13.1849 388.807 26.4624C384.415 33.4974 382.518 41.6224 382.518 47.5676C382.518 56.0889 386.311 59.8542 389.905 59.8542C395.396 59.8542 402.484 53.5127 408.274 42.5142Z" fill="white"/>
<path d="M417.649 59.656C416.85 58.3679 417.05 57.0798 418.048 54.3054C422.54 42.6133 432.124 24.6788 440.41 11.8968C438.113 10.4106 436.916 8.8252 436.416 6.94257C436.117 5.55537 437.215 4.96086 438.712 4.96086C444.203 4.96086 449.494 4.36635 454.286 3.57367C457.68 3.07824 460.475 2.58282 463.07 2.58282C467.663 2.48373 470.158 4.26727 471.456 7.73525C471.855 8.82519 471.156 9.71696 469.26 9.71696C464.268 9.71696 458.878 10.7078 454.186 11.5996C452.688 11.8968 451.69 12.095 450.193 12.2932C446.898 17.2474 442.306 25.4715 437.614 33.8938C439.711 33.5965 441.408 33.4974 442.805 33.3984C448.296 33.2002 450.891 34.9837 451.99 38.1545C452.489 39.4426 452.289 40.4334 449.993 40.4334C445.101 40.4334 438.114 41.6224 432.723 43.0096C429.928 48.2612 427.831 52.3237 425.835 56.7825C429.928 55.6926 436.217 54.6026 439.411 54.4045C444.802 54.2063 447.597 55.7917 448.795 59.0615C449.294 60.4487 448.995 61.2414 446.898 61.2414C441.607 61.1423 430.926 63.7185 425.435 65.2048C423.04 65.8984 421.442 65.8984 420.145 64.0157C419.446 63.0249 418.747 61.4395 417.649 59.656Z" fill="white"/>
<path d="M485.595 17.842C476.91 33.5965 470.421 44.6941 464.931 56.2871C469.822 55.0981 474.614 54.4045 478.208 54.1072C483.698 53.7109 486.593 55.7917 487.891 58.8633C488.39 60.0523 488.19 61.0432 485.894 61.0432C481.202 60.9441 470.521 63.4212 464.831 64.9075C461.936 65.6011 460.638 65.6011 459.24 63.6194C458.242 62.2322 456.944 60.4487 456.545 59.3587C455.846 57.5752 455.846 55.9898 456.844 53.3145C461.636 41.2261 478.108 11.5005 484.297 3.17733C485.894 0.997447 487.092 1.69105 488.091 3.47458C488.59 4.46544 488.989 5.95172 488.989 7.53708C488.989 10.0142 488.091 13.4822 485.595 17.842Z" fill="white"/>
<path d="M524.828 41.0279C526.026 32.8038 528.022 23.1926 530.518 15.7612C524.129 23.3907 516.942 32.9029 510.652 42.6133C512.649 42.4151 514.645 42.217 516.542 41.9197C519.936 41.5234 522.133 41.127 524.828 41.0279ZM527.723 64.313C525.527 63.2231 523.63 60.6468 523.53 54.8999C523.53 53.1164 523.53 50.8374 523.83 48.2612L516.842 48.9548C512.849 49.3511 508.955 49.7474 506.16 49.6484C503.465 54.3054 501.269 59.2596 498.973 63.3221C497.775 65.4029 496.078 65.0066 495.379 63.6194C494.78 62.4304 494.181 61.5386 494.181 59.9532C494.181 58.3679 494.58 56.0889 495.778 53.2154C496.377 51.7292 497.076 50.0447 498.174 47.9639C496.377 46.6758 495.479 45.2886 495.179 44.6941C494.38 42.8115 494.78 42.217 497.375 42.6133C498.773 42.8115 499.571 42.9106 500.969 43.0096C508.456 30.0295 522.232 10.906 532.714 2.08739C534.911 0.303853 536.408 0.402936 537.905 2.38464C538.904 3.67275 539.503 4.7627 540.201 6.44714C540.701 7.63617 541 8.72611 541 9.91513C541 11.1042 540.8 12.4914 540.201 13.9776C537.905 21.1118 535.11 31.4167 533.213 41.8206C535.909 43.0096 536.907 44.8923 537.606 46.9731C538.105 48.5584 537.406 48.9548 535.609 48.6575L532.115 48.063C531.516 53.0173 531.017 58.0706 530.818 62.9258C530.818 64.7093 529.52 65.1057 527.723 64.313Z" fill="white"/>
</svg>
