<svg width="30" height="30" viewBox="0 0 30 30" fill="none" xmlns="http://www.w3.org/2000/svg">
<path d="M30 15C30 23.2843 23.2843 30 15 30C6.71573 30 0 23.2843 0 15C0 6.71573 6.71573 0 15 0C23.2843 0 30 6.71573 30 15Z" fill="#171313"/>
<path d="M21.4286 10.7143C21.4286 14.2647 18.5504 17.1429 15 17.1429C11.4496 17.1429 8.57143 14.2647 8.57143 10.7143C8.57143 7.16388 11.4496 4.28571 15 4.28571C18.5504 4.28571 21.4286 7.16388 21.4286 10.7143Z" fill="#D9D9D9"/>
<path d="M15 18.2143C17.2469 18.2143 19.1097 18.7815 20.8238 20.1385C22.3939 21.3816 23.8106 23.2665 25.2999 25.9026C22.613 28.442 18.9888 30 15 30C10.8493 30 7.09252 28.3141 4.37674 25.5898C6.03833 22.8766 7.53754 21.0678 9.12912 19.9219C10.9189 18.6333 12.7797 18.2143 15 18.2143Z" fill="#D9D9D9"/>
</svg>
