<svg width="32" height="32" viewBox="0 0 32 32" fill="none" xmlns="http://www.w3.org/2000/svg">
<path d="M1 10.6053C1 9.15188 2.06599 7.97368 3.38095 7.97368H28.619C29.934 7.97368 31 9.15188 31 10.6053V28.3684C31 29.8218 29.934 31 28.619 31H3.38095C2.06599 31 1 29.8218 1 28.3684V10.6053Z" fill="#F0F0F0"/>
<path d="M9.57143 16.1316V7.57895C9.57143 3.94549 12.2364 1 15.5238 1H16.9524C20.2398 1 22.9048 3.94549 22.9048 7.57895V16.1316M3.38095 31H28.619C29.934 31 31 29.8218 31 28.3684V10.6053C31 9.15188 29.934 7.97368 28.619 7.97368H3.38095C2.06599 7.97368 1 9.15188 1 10.6053V28.3684C1 29.8218 2.06599 31 3.38095 31Z" stroke="black"/>
</svg>
