<svg width="42" height="36" viewBox="0 0 42 36" fill="none" xmlns="http://www.w3.org/2000/svg">
<path d="M38.2013 3.84002C37.3148 2.93984 36.2613 2.22558 35.1014 1.73823C33.9415 1.25087 32.6979 1 31.4419 1C30.1859 1 28.9423 1.25087 27.7824 1.73823C26.6225 2.22558 25.5691 2.93984 24.6826 3.84002L20.923 7.63393L17.1634 3.84002C15.3568 2.09551 12.9474 1.13534 10.4502 1.16482C7.95309 1.19429 5.56644 2.21107 3.80058 3.99774C2.03471 5.78442 1.02978 8.1992 1.00065 10.7258C0.97152 13.2523 1.9205 15.6902 3.64469 17.5181L20.923 35L34.4417 21.322L38.2013 17.5181C39.9933 15.7039 41 13.244 41 10.679C41 8.11412 39.9933 5.65418 38.2013 3.84002Z" fill="white" stroke="#171313" stroke-linecap="round" stroke-linejoin="round"/>
</svg>
