<svg width="22" height="23" viewBox="0 0 22 23" fill="none" xmlns="http://www.w3.org/2000/svg">
<path d="M16 1.21191H6C3.23858 1.21191 1 3.45049 1 6.21191V16.2119C1 18.9733 3.23858 21.2119 6 21.2119H16C18.7614 21.2119 21 18.9733 21 16.2119V6.21191C21 3.45049 18.7614 1.21191 16 1.21191Z" stroke="#E1E1E1" stroke-width="2" stroke-linecap="round" stroke-linejoin="round"/>
<path d="M14.9997 10.5817C15.1231 11.414 14.981 12.2639 14.5935 13.0107C14.206 13.7575 13.5929 14.3631 12.8413 14.7414C12.0898 15.1197 11.2382 15.2513 10.4075 15.1177C9.57683 14.984 8.80947 14.5918 8.21455 13.9969C7.61962 13.402 7.22744 12.6346 7.09377 11.8039C6.96011 10.9733 7.09177 10.1216 7.47003 9.3701C7.84829 8.61858 8.45389 8.00547 9.20069 7.61797C9.94749 7.23047 10.7975 7.08832 11.6297 7.21173C12.4786 7.33761 13.2646 7.73319 13.8714 8.34003C14.4782 8.94688 14.8738 9.7328 14.9997 10.5817Z" stroke="#E1E1E1" stroke-width="2" stroke-linecap="round" stroke-linejoin="round"/>
<path d="M16.5 5.71191H16.51" stroke="#E1E1E1" stroke-width="2" stroke-linecap="round" stroke-linejoin="round"/>
</svg>
