<svg width="34" height="34" viewBox="0 0 34 34" fill="none" xmlns="http://www.w3.org/2000/svg">
<path d="M24.5 1.68896H9.5C5.35786 1.68896 2 5.04683 2 9.18896V24.189C2 28.3311 5.35786 31.689 9.5 31.689H24.5C28.6421 31.689 32 28.3311 32 24.189V9.18896C32 5.04683 28.6421 1.68896 24.5 1.68896Z" stroke="#3D3D3D" stroke-width="3" stroke-linecap="round" stroke-linejoin="round"/>
<path d="M23.0005 15.7439C23.1857 16.9923 22.9724 18.2673 22.3912 19.3875C21.8099 20.5076 20.8903 21.416 19.763 21.9834C18.6357 22.5508 17.3582 22.7483 16.1122 22.5478C14.8662 22.3473 13.7152 21.7591 12.8228 20.8667C11.9304 19.9743 11.3421 18.8232 11.1416 17.5772C10.9411 16.3313 11.1386 15.0538 11.706 13.9265C12.2734 12.7992 13.1818 11.8795 14.302 11.2983C15.4222 10.717 16.6972 10.5038 17.9455 10.6889C19.2189 10.8778 20.3978 11.4711 21.3081 12.3814C22.2183 13.2917 22.8117 14.4705 23.0005 15.7439Z" stroke="#3D3D3D" stroke-width="3" stroke-linecap="round" stroke-linejoin="round"/>
<path d="M25.25 8.43896H25.265" stroke="#3D3D3D" stroke-width="3" stroke-linecap="round" stroke-linejoin="round"/>
</svg>
