<svg width="28" height="28" viewBox="0 0 28 28" fill="none" xmlns="http://www.w3.org/2000/svg">
<path d="M28 14C28 21.732 21.732 28 14 28C6.26801 28 0 21.732 0 14C0 6.26801 6.26801 0 14 0C21.732 0 28 6.26801 28 14Z" fill="white"/>
<path d="M20 10C20 13.3137 17.3137 16 14 16C10.6863 16 8 13.3137 8 10C8 6.68629 10.6863 4 14 4C17.3137 4 20 6.68629 20 10Z" fill="#171313"/>
<path d="M14 17C16.0971 17 17.8357 17.5294 19.4355 18.7959C20.901 19.9561 22.2232 21.7154 23.6133 24.1758C21.1054 26.5458 17.7229 28 14 28C10.1261 28 6.61969 26.4265 4.08496 23.8838C5.63578 21.3515 7.03504 19.6633 8.52051 18.5938C10.191 17.3911 11.9277 17 14 17Z" fill="#171313"/>
</svg>
